{"glyphs":{"0":{"ha":556,"x_min":26,"x_max":531,"o":"m 154 325 q 261 15 154 69 q 350 106 315 33 q 403 385 403 221 q 378 585 403 490 q 294 708 354 679 q 207 614 240 690 q 154 325 154 493 m 26 340 q 135 638 63 531 q 301 744 208 744 q 454 640 393 744 q 531 382 515 536 q 422 85 494 192 q 256 -21 349 -21 q 103 82 164 -21 q 26 340 42 185 z "},"1":{"ha":556,"x_min":132,"x_max":424,"o":"m 390 743 q 353 496 365 656 q 342 229 342 336 q 347 54 342 122 q 424 19 381 32 l 418 -4 q 347 0 386 0 q 139 -32 236 0 l 132 -10 q 229 38 169 13 q 258 507 258 235 q 257 600 258 571 q 154 581 206 586 l 147 603 q 229 651 199 625 q 296 725 260 676 q 379 749 346 735 l 390 743 z "},"2":{"ha":556,"x_min":35,"x_max":490,"o":"m 143 99 q 273 93 192 93 q 404 118 354 93 q 457 215 433 186 l 475 207 q 446 83 446 132 q 463 10 446 35 l 451 -8 q 211 11 369 11 q 50 -22 93 11 l 35 -15 q 182 229 69 103 q 269 329 226 279 q 365 536 365 443 q 342 624 365 589 q 274 660 318 660 q 197 642 231 660 q 186 593 186 624 q 201 549 186 563 l 200 539 q 138 478 165 515 q 108 492 119 479 q 97 524 97 506 q 167 662 97 597 q 319 744 238 726 q 447 678 404 744 q 490 514 490 611 q 317 297 447 429 q 143 99 186 164 z "},"3":{"ha":556,"x_min":43,"x_max":494,"o":"m 378 254 q 222 397 378 397 q 179 393 197 397 l 169 419 q 290 503 232 447 q 385 622 349 560 q 247 640 301 640 q 182 635 192 640 q 128 538 154 572 l 108 547 q 138 669 138 619 q 122 744 138 719 l 136 760 q 368 719 197 719 q 488 724 454 719 l 494 704 q 313 474 431 572 l 313 469 q 443 425 400 463 q 486 303 486 388 q 409 127 486 219 q 239 -21 332 35 q 147 28 194 -8 q 68 106 99 64 l 43 140 q 142 250 104 196 l 160 242 q 149 184 149 214 q 190 112 149 154 q 271 54 231 69 q 349 141 319 86 q 378 254 378 196 z "},"4":{"ha":556,"x_min":6,"x_max":533,"o":"m 401 203 q 407 54 401 115 q 483 19 440 32 l 478 -4 q 407 0 447 0 q 199 -32 296 0 l 192 -10 q 289 38 229 13 q 306 203 303 140 l 11 203 l 6 221 q 325 719 185 425 q 444 751 397 729 l 456 746 q 431 661 439 693 q 403 269 411 576 q 526 292 474 269 l 533 285 q 511 196 518 247 q 401 203 449 203 m 315 615 q 138 281 233 414 q 311 271 204 274 l 325 615 l 315 615 z "},"5":{"ha":556,"x_min":46,"x_max":489,"o":"m 131 601 q 132 661 132 624 q 119 728 132 699 l 132 736 q 239 717 160 717 q 426 749 318 717 l 436 733 q 421 663 421 708 q 447 551 421 618 l 426 542 q 381 624 410 565 q 302 636 354 636 q 185 621 250 636 l 164 453 l 168 451 l 178 463 q 303 475 226 475 q 435 432 381 475 q 489 305 489 389 q 412 128 489 221 q 242 -21 335 35 q 147 28 196 -8 q 69 107 99 65 l 46 140 q 144 250 107 196 l 163 242 q 151 184 151 213 q 192 113 151 156 q 272 54 232 69 q 351 141 321 85 q 381 264 381 197 q 221 392 381 392 q 131 382 171 392 l 118 389 l 131 601 z "},"6":{"ha":556,"x_min":74,"x_max":494,"o":"m 182 244 q 205 112 182 160 q 285 64 228 64 q 369 89 342 64 q 390 213 390 140 q 364 330 390 285 q 269 375 338 375 q 231 372 258 375 l 231 381 q 304 447 268 407 q 452 383 410 447 q 494 197 494 319 q 405 64 472 128 q 267 -21 338 0 q 122 47 169 -21 q 74 222 74 114 q 182 528 74 389 q 458 744 290 667 l 474 722 q 182 244 182 525 z "},"7":{"ha":556,"x_min":75,"x_max":503,"o":"m 275 0 q 83 -29 156 0 l 75 -6 q 143 42 115 13 q 215 308 160 188 q 392 624 271 429 q 258 639 315 639 q 174 628 200 639 q 119 529 151 571 l 100 539 q 131 662 131 613 q 113 735 131 711 l 124 751 q 408 718 249 718 q 492 738 463 718 l 503 729 q 322 370 378 529 q 263 46 267 211 q 367 15 325 33 l 364 -7 q 275 0 311 0 z "},"8":{"ha":556,"x_min":67,"x_max":482,"o":"m 251 -21 q 118 30 169 -21 q 67 152 67 81 q 111 282 67 224 q 221 383 156 340 q 132 472 164 426 q 100 581 100 517 q 199 681 132 631 q 322 744 267 731 q 467 619 467 744 q 325 428 467 536 q 425 351 392 383 q 482 210 482 293 q 399 66 453 119 q 251 -21 344 13 m 356 85 q 378 178 378 132 q 357 259 378 225 q 316 310 336 293 q 251 360 296 326 q 190 286 214 332 q 165 188 165 240 q 196 99 165 136 q 278 61 226 61 q 356 85 331 61 m 213 640 q 204 583 204 622 q 294 447 204 510 q 371 582 371 518 q 293 661 371 661 q 213 640 240 661 z "},"9":{"ha":556,"x_min":61,"x_max":482,"o":"m 374 479 q 351 612 374 564 q 270 660 328 660 q 186 635 213 660 q 165 511 165 583 q 192 394 165 439 q 286 349 218 349 q 325 351 297 349 l 325 343 q 251 276 288 317 q 103 340 146 276 q 61 526 61 404 q 151 660 83 596 q 289 744 218 724 q 434 677 386 744 q 482 501 482 610 q 374 196 482 335 q 97 -21 265 57 l 82 1 q 374 479 374 199 z "}," ":{"ha":229,"x_min":0,"x_max":0,"o":""},"!":{"ha":285,"x_min":64,"x_max":304,"o":"m 214 74 q 176 22 201 53 q 131 -21 150 -8 q 64 74 97 3 q 100 115 74 92 q 146 150 126 139 q 214 74 181 128 m 258 967 q 267 967 263 967 q 304 911 283 950 q 167 253 235 701 l 131 250 l 171 943 q 258 967 221 967 z "},"\"":{"ha":431,"x_min":82,"x_max":396,"o":"m 192 925 q 200 925 196 925 l 215 907 q 114 603 160 800 l 82 600 l 100 901 q 192 925 150 925 m 372 925 q 381 925 376 925 l 396 907 q 294 603 340 800 l 263 600 l 281 901 q 372 925 331 925 z "},"#":{"ha":794,"x_min":51,"x_max":743,"o":"m 563 515 q 689 514 656 514 q 733 514 722 514 l 743 506 l 706 439 l 549 443 l 515 261 q 637 260 604 260 q 679 260 669 260 l 688 253 l 651 185 l 501 189 l 442 -128 l 435 -128 q 381 -99 403 -121 q 443 190 417 47 l 293 194 l 233 -128 l 226 -128 q 172 -99 194 -121 q 236 196 214 69 l 63 200 l 51 210 l 89 282 l 151 276 q 250 271 176 274 l 285 450 l 115 454 l 106 463 l 143 536 l 206 531 q 299 525 228 528 l 356 815 q 417 822 382 815 l 422 818 q 356 522 385 675 q 507 517 401 519 l 564 815 q 625 822 590 815 l 631 818 q 563 515 594 679 m 307 268 q 457 263 351 265 l 492 444 l 342 449 l 307 268 z "},"$":{"ha":493,"x_min":14,"x_max":499,"o":"m 133 276 q 122 213 122 243 q 151 141 122 182 q 218 74 181 100 l 240 354 q 109 436 136 410 q 82 493 82 463 q 142 625 82 563 q 279 721 203 688 l 288 817 q 325 825 310 819 l 331 821 q 317 717 324 789 q 417 699 376 699 q 485 721 457 699 l 499 701 q 460 664 474 676 q 436 639 446 651 q 396 589 419 622 l 353 608 l 307 625 l 293 443 q 368 403 344 417 q 417 365 392 390 q 443 313 443 339 q 382 151 443 242 q 247 -6 321 61 l 242 -126 l 235 -128 q 199 -107 213 -121 l 207 -21 l 207 -14 q 116 44 161 4 q 42 128 71 83 l 14 168 q 114 286 82 231 l 133 276 m 357 240 q 274 336 357 286 l 256 69 l 254 56 q 319 143 281 76 q 357 240 357 210 m 271 636 l 233 644 q 185 611 211 638 q 160 564 160 585 q 258 461 160 514 l 271 635 l 271 636 z "},"%":{"ha":1111,"x_min":136,"x_max":975,"o":"m 326 792 q 474 771 356 792 q 684 750 592 750 q 811 803 776 750 l 821 817 q 911 831 874 819 l 915 826 q 693 525 807 686 l 224 -139 l 217 -139 q 165 -94 182 -122 q 351 142 333 115 l 621 522 q 765 732 736 688 l 760 733 q 653 699 725 699 q 419 749 581 699 l 415 744 q 492 565 482 671 q 416 379 474 443 q 301 315 358 315 q 194 380 243 315 q 136 540 146 444 q 216 724 156 656 q 326 792 276 792 m 619 204 q 699 388 639 319 q 813 456 760 456 q 916 388 865 456 q 975 229 967 319 q 899 43 957 107 q 784 -21 842 -21 q 678 44 726 -21 q 619 204 629 108 m 808 413 q 737 323 760 390 q 714 197 714 256 q 732 89 714 139 q 786 22 750 39 q 857 104 833 38 q 881 231 881 171 q 808 413 881 375 m 325 749 q 253 659 276 726 q 231 533 231 592 q 249 425 231 475 q 303 358 267 375 q 374 440 350 374 q 397 567 397 507 q 325 749 397 711 z "},"&":{"ha":833,"x_min":33,"x_max":815,"o":"m 33 269 q 278 568 33 485 l 278 574 q 188 621 225 586 q 151 703 151 656 q 446 925 250 869 q 629 893 556 925 q 563 778 592 847 l 553 778 q 410 831 482 831 q 285 796 338 831 q 269 728 269 769 q 385 596 269 625 l 379 561 q 149 294 149 510 q 208 125 149 186 q 364 64 267 64 q 510 93 461 64 q 576 196 551 132 q 601 319 601 260 q 489 442 601 442 q 422 425 450 442 q 406 355 406 392 q 419 303 406 318 l 418 293 q 349 235 383 272 q 322 249 332 236 q 311 278 311 261 q 392 448 311 379 q 586 532 472 517 q 652 522 617 522 q 704 533 688 522 q 721 603 721 567 q 707 656 721 640 l 708 665 q 778 724 743 686 q 805 710 794 722 q 815 681 815 697 q 777 556 815 613 q 674 469 739 500 q 717 343 717 417 q 603 117 717 225 q 358 -21 489 10 q 124 56 215 -21 q 33 269 33 133 z "},"'":{"ha":250,"x_min":82,"x_max":215,"o":"m 192 925 q 200 925 196 925 l 215 907 q 114 603 160 800 l 82 600 l 100 901 q 192 925 150 925 z "},"(":{"ha":413,"x_min":82,"x_max":422,"o":"m 422 974 q 182 276 182 674 q 215 -5 182 146 q 333 -285 247 -156 l 318 -299 q 139 -25 196 -187 q 82 293 82 138 q 175 697 82 519 q 408 988 268 875 l 422 974 z "},")":{"ha":415,"x_min":-10,"x_max":333,"o":"m 233 444 q 79 974 233 742 l 93 988 q 276 728 218 875 q 333 431 333 581 q 238 8 333 203 q 3 -299 142 -187 l -10 -285 q 156 17 93 -156 q 233 444 233 229 z "},"*":{"ha":515,"x_min":60,"x_max":453,"o":"m 292 933 l 328 942 l 331 939 q 272 783 286 871 q 383 904 346 838 l 388 904 q 396 868 392 897 q 440 875 431 875 q 453 874 450 875 q 417 825 453 865 l 439 797 l 438 794 q 428 794 433 794 q 281 760 364 794 q 424 725 354 725 q 433 725 428 725 l 435 722 l 407 694 q 439 646 439 653 q 428 644 438 644 q 381 651 418 644 q 368 615 369 618 l 364 615 q 269 736 335 681 q 306 581 272 646 l 304 578 l 269 586 q 240 532 246 535 q 221 586 235 535 l 186 578 l 183 581 q 242 736 226 650 q 129 615 172 685 l 125 615 l 117 651 q 72 644 82 644 q 60 646 63 644 q 96 694 60 649 l 74 722 l 75 725 q 85 725 81 725 q 232 760 154 725 q 85 794 151 794 q 79 794 82 794 l 79 797 l 106 825 q 94 840 103 829 q 74 874 74 865 q 85 875 75 875 q 132 868 96 875 q 144 904 143 903 l 149 904 q 244 783 181 836 q 207 939 239 876 l 210 942 l 243 933 q 272 988 267 983 q 292 933 278 985 z "},"+":{"ha":764,"x_min":81,"x_max":696,"o":"m 415 308 q 428 0 415 132 l 364 -12 l 350 -3 l 350 308 l 92 308 l 81 318 l 93 389 q 350 379 263 381 l 350 661 l 415 674 l 422 665 q 415 379 415 482 l 415 378 q 550 376 467 376 q 688 381 633 376 l 696 372 l 683 308 l 415 308 z "},",":{"ha":285,"x_min":21,"x_max":221,"o":"m 221 74 q 153 -75 208 0 q 32 -193 99 -150 l 21 -179 q 121 0 106 -94 q 69 74 86 35 q 109 117 82 93 q 154 150 136 140 q 190 116 169 140 q 221 74 211 92 z "},"-":{"ha":397,"x_min":39,"x_max":361,"o":"m 111 400 q 350 414 233 400 l 361 407 l 353 349 l 51 328 l 39 336 l 47 400 l 111 400 z "},".":{"ha":278,"x_min":64,"x_max":214,"o":"m 214 74 q 176 22 201 53 q 131 -21 150 -8 q 64 74 97 3 q 100 115 74 92 q 146 150 126 139 q 214 74 181 128 z "},"/":{"ha":547,"x_min":10,"x_max":538,"o":"m 69 -57 l 63 -57 q 10 -15 31 -43 q 138 247 78 115 l 325 663 q 454 969 400 829 q 532 981 494 972 l 538 976 q 401 682 501 908 l 69 -57 z "},":":{"ha":304,"x_min":64,"x_max":240,"o":"m 214 74 q 176 22 201 53 q 131 -21 150 -8 q 64 74 97 3 q 100 115 74 92 q 146 150 126 139 q 214 74 181 128 m 240 597 q 202 546 228 576 q 157 503 176 515 q 90 597 124 526 q 126 639 100 615 q 172 674 153 663 q 240 597 207 651 z "},";":{"ha":299,"x_min":21,"x_max":235,"o":"m 221 74 q 153 -75 208 0 q 32 -193 99 -150 l 21 -179 q 121 0 106 -94 q 69 74 86 35 q 109 117 82 93 q 154 150 136 140 q 190 116 169 140 q 221 74 211 92 m 235 597 q 197 546 222 576 q 151 503 171 515 q 85 597 118 526 q 121 639 94 615 q 167 674 147 663 q 235 597 201 651 z "},"<":{"ha":764,"x_min":72,"x_max":692,"o":"m 656 76 q 72 308 361 222 l 92 397 q 346 488 169 421 q 658 624 522 554 l 692 560 l 685 546 l 186 353 l 186 347 l 685 156 l 692 142 l 656 76 z "},"=":{"ha":764,"x_min":74,"x_max":689,"o":"m 86 282 q 474 269 322 269 q 681 274 626 269 l 689 265 l 676 201 l 85 201 l 74 211 l 86 282 m 86 496 q 474 483 322 483 q 681 488 626 483 l 689 479 l 676 415 l 85 415 l 74 425 l 86 496 z "},">":{"ha":764,"x_min":72,"x_max":692,"o":"m 692 308 q 108 76 403 222 l 72 142 l 79 156 l 578 347 l 578 353 l 79 546 l 72 560 l 106 624 q 418 488 242 554 q 672 397 594 421 l 692 308 z "},"?":{"ha":351,"x_min":42,"x_max":426,"o":"m 129 469 q 256 629 203 542 q 308 799 308 717 q 221 881 308 881 q 146 865 178 881 q 129 815 129 842 q 139 779 129 788 l 136 769 q 72 714 97 744 q 42 744 42 714 q 107 879 42 822 q 264 967 172 936 q 392 921 357 967 q 426 774 426 875 q 317 613 389 697 q 289 578 294 586 q 222 503 244 525 q 164 253 186 346 l 128 250 l 129 469 m 218 74 q 180 22 206 53 q 135 -21 154 -8 q 68 74 101 3 q 104 115 78 92 q 150 150 131 139 q 218 74 185 128 z "},"@":{"ha":1156,"x_min":53,"x_max":1103,"o":"m 676 225 q 594 232 621 232 q 537 232 568 232 q 471 225 506 232 q 446 85 446 132 q 451 -4 446 38 q 311 -18 356 -4 l 304 -10 l 532 635 q 451 663 496 644 l 460 688 q 639 678 519 678 q 799 686 758 678 l 806 681 q 772 332 772 542 q 796 43 772 122 q 956 235 901 101 q 1011 504 1011 369 q 643 856 1011 856 q 396 792 497 856 q 215 510 282 689 q 147 165 147 331 q 234 -98 147 -1 q 478 -194 321 -194 q 644 -164 564 -194 l 653 -182 q 461 -264 568 -240 q 160 -161 267 -264 q 53 138 53 -58 q 118 500 53 335 q 319 780 183 665 q 646 925 454 894 q 979 833 856 925 q 1103 547 1103 740 q 1009 197 1103 354 q 746 -21 915 40 q 690 42 704 -6 q 676 225 676 90 m 488 290 q 581 282 515 282 q 679 292 646 282 q 686 487 686 399 q 681 626 686 575 q 647 631 668 631 q 610 626 626 631 q 564 524 590 597 l 488 290 z "},"A":{"ha":733,"x_min":-6,"x_max":621,"o":"m 476 314 q 376 322 426 322 q 281 322 325 322 q 197 314 236 322 q 161 85 161 178 q 171 -1 161 47 q 8 -21 75 -1 l -1 -10 l 288 818 q 335 838 308 831 l 336 847 q 106 797 163 840 q 89 727 89 764 q 103 675 89 690 l 101 665 q 32 607 67 644 q 5 621 15 608 q -6 650 -6 633 q 62 805 -6 726 q 210 915 129 883 q 425 904 297 904 q 613 915 553 904 l 621 908 q 588 636 601 826 q 574 263 574 446 q 589 0 574 81 q 447 -21 503 -6 l 439 -14 q 476 314 461 89 m 217 383 q 344 374 253 374 q 481 385 435 374 q 488 641 488 535 q 479 844 488 747 q 435 849 463 849 q 386 844 407 849 q 319 699 351 799 l 217 383 z "},"B":{"ha":697,"x_min":-103,"x_max":639,"o":"m 386 904 q 593 749 593 904 q 415 511 593 585 l 415 506 q 639 329 639 506 q 541 113 639 214 q 319 -21 443 13 l 285 -10 q 167 15 206 15 q 100 10 128 15 l 92 28 q 129 138 119 57 q 154 551 154 371 q 149 817 154 732 q 210 838 178 832 l 211 847 q 8 797 67 842 q -8 727 -8 764 q 6 675 -8 690 l 4 665 q -65 607 -31 644 q -92 621 -82 608 q -103 650 -103 633 q -35 805 -103 726 q 113 915 32 883 q 386 904 208 904 m 363 853 q 278 849 322 853 q 240 267 240 611 q 246 97 240 175 q 369 72 306 72 q 486 118 432 72 q 522 286 522 186 q 297 482 522 482 l 303 524 q 428 558 389 529 q 476 707 476 613 q 363 853 476 853 z "},"C":{"ha":590,"x_min":46,"x_max":600,"o":"m 46 251 q 117 637 46 471 q 350 925 189 803 q 489 904 413 904 q 592 911 565 904 l 600 896 q 521 654 521 821 l 504 654 q 478 788 483 721 l 443 803 q 301 832 376 832 q 160 313 160 596 q 379 -69 160 -69 q 452 22 425 -39 q 479 143 479 82 q 475 176 479 158 l 482 183 q 589 199 547 186 q 491 -15 561 83 q 324 -160 421 -114 q 119 -40 192 -160 q 46 251 46 79 z "},"D":{"ha":735,"x_min":-103,"x_max":682,"o":"m 113 915 q 378 904 208 904 q 615 811 549 904 q 682 520 682 718 q 594 176 682 322 q 319 -21 507 29 l 285 -10 q 167 15 206 15 q 100 10 128 15 l 92 28 q 129 138 119 57 q 154 551 154 371 q 149 817 154 732 q 210 838 178 832 l 211 847 q 8 797 67 842 q -8 727 -8 764 q 6 675 -8 690 l 4 665 q -65 607 -31 644 q -92 621 -82 608 q -103 650 -103 633 q -35 805 -103 726 q 113 915 32 883 m 368 853 q 278 849 325 853 q 240 267 240 611 q 246 97 240 175 q 357 72 306 72 q 493 118 443 72 q 551 281 531 183 q 572 464 572 378 q 368 853 572 853 z "},"E":{"ha":746,"x_min":33,"x_max":717,"o":"m 358 -100 q 124 -23 215 -100 q 33 183 33 54 q 99 389 33 311 q 279 490 164 467 q 342 483 310 490 l 343 493 q 210 577 267 519 q 154 703 154 635 q 449 925 253 869 q 632 893 558 925 q 565 778 594 847 l 556 778 q 413 831 485 831 q 288 796 340 831 q 272 728 272 769 q 319 578 272 632 q 461 506 365 525 l 453 465 q 149 215 149 465 q 208 46 149 107 q 364 -15 267 -15 q 510 14 461 -15 q 576 117 551 53 q 601 240 601 181 q 489 363 601 363 q 422 346 450 363 q 406 276 406 313 q 419 224 406 239 l 418 214 q 349 156 383 193 q 322 169 332 157 q 311 199 311 182 q 388 367 311 300 q 572 450 465 433 q 678 384 640 432 q 717 264 717 336 q 603 38 717 146 q 358 -100 489 -69 z "},"F":{"ha":579,"x_min":-103,"x_max":618,"o":"m 126 921 q 403 900 253 900 q 606 939 554 900 l 618 928 q 550 690 553 833 l 533 690 q 506 839 513 756 q 418 831 479 831 q 278 844 357 831 q 247 519 257 722 q 354 511 282 511 q 497 535 426 511 l 504 526 q 483 440 489 485 q 324 454 386 454 q 244 450 263 454 q 240 212 240 353 q 256 0 240 71 q 114 -21 178 -4 l 106 -14 q 140 264 125 68 q 154 596 154 460 q 149 817 154 732 q 210 838 178 832 l 211 847 q 8 797 67 842 q -8 727 -8 764 q 6 675 -8 690 l 4 665 q -65 607 -31 644 q -92 621 -82 608 q -103 650 -103 633 q -31 809 -103 729 q 126 921 40 889 z "},"G":{"ha":664,"x_min":53,"x_max":600,"o":"m 446 85 l 446 99 q 374 31 422 69 q 294 -21 325 -8 q 116 85 179 -7 q 53 306 53 178 q 129 660 53 493 q 350 925 206 828 q 489 904 413 904 q 592 911 565 904 l 600 896 q 521 654 521 821 l 504 654 q 478 788 483 721 l 443 803 q 297 832 376 832 q 202 617 238 740 q 167 381 167 493 q 329 82 167 126 q 447 146 403 97 l 447 251 q 440 344 447 306 q 314 394 378 363 l 317 410 q 410 401 367 401 q 568 446 508 401 l 582 436 q 561 356 565 400 q 535 -68 538 157 q 402 -210 494 -142 q 233 -278 310 -278 q 199 -267 213 -278 q 185 -236 185 -256 q 253 -165 225 -206 l 263 -164 q 333 -187 293 -187 q 389 -179 374 -187 q 446 85 446 -103 z "},"H":{"ha":857,"x_min":-103,"x_max":990,"o":"m 604 529 l 606 635 q 590 901 606 831 q 747 1087 622 981 q 947 1193 871 1193 q 976 1183 964 1193 q 990 1156 989 1172 q 932 1086 953 1121 l 922 1085 q 870 1099 907 1099 q 800 1082 833 1099 q 726 904 744 1010 q 692 267 692 701 q 707 0 692 71 q 565 -21 629 -4 l 557 -14 q 601 456 592 146 q 423 465 518 465 q 244 456 328 465 q 240 222 240 374 q 256 0 240 71 q 114 -21 178 -4 l 106 -14 q 140 264 125 68 q 154 596 154 460 q 149 817 154 732 q 210 838 178 832 l 211 847 q 8 797 67 842 q -8 727 -8 764 q 6 675 -8 690 l 4 665 q -65 607 -31 644 q -92 621 -82 608 q -103 650 -103 633 q -35 805 -103 726 q 113 915 32 883 q 222 904 175 904 q 285 908 269 904 l 293 901 q 247 531 260 751 q 430 517 332 517 q 604 529 528 517 z "},"I":{"ha":406,"x_min":-103,"x_max":293,"o":"m 240 267 q 256 0 240 71 q 114 -21 178 -4 l 106 -14 q 140 264 125 68 q 154 596 154 460 q 149 817 154 732 q 210 838 178 832 l 211 847 q 8 797 67 842 q -8 727 -8 764 q 6 675 -8 690 l 4 665 q -65 607 -31 644 q -92 621 -82 608 q -103 650 -103 633 q -35 805 -103 726 q 113 915 32 883 q 222 904 175 904 q 285 908 269 904 l 293 901 q 240 267 240 654 z "},"J":{"ha":406,"x_min":-103,"x_max":293,"o":"m 139 214 q 154 617 154 501 q 149 817 154 732 q 210 838 178 832 l 211 847 q 8 797 67 842 q -8 727 -8 764 q 6 675 -8 690 l 4 665 q -65 607 -31 644 q -92 621 -82 608 q -103 650 -103 633 q -35 805 -103 726 q 113 915 32 883 q 222 904 175 904 q 285 908 269 904 l 293 901 q 240 267 240 654 q 253 18 240 122 q 137 -131 218 -57 q -29 -250 56 -206 l -44 -229 q 94 -44 57 -144 q 139 214 131 57 z "},"K":{"ha":731,"x_min":-103,"x_max":1035,"o":"m 240 267 q 256 0 240 71 q 114 -21 178 -4 l 106 -14 q 140 264 125 68 q 154 596 154 460 q 149 817 154 732 q 210 838 178 832 l 211 847 q 8 797 67 842 q -8 727 -8 764 q 6 675 -8 690 l 4 665 q -65 607 -31 644 q -92 621 -82 608 q -103 650 -103 633 q -35 805 -103 726 q 113 915 32 883 q 222 904 175 904 q 285 908 269 904 l 293 901 q 247 531 260 751 l 243 425 l 392 621 q 504 856 504 769 q 501 897 504 864 l 507 904 q 657 917 599 904 q 408 549 600 750 q 531 315 449 468 q 619 151 614 161 q 643 110 625 142 q 669 65 661 78 q 695 26 678 53 q 726 -15 713 0 q 756 -49 739 -29 q 829 -111 789 -85 q 854 -112 835 -112 q 903 -101 874 -112 q 946 -72 933 -90 l 954 -69 q 1033 -115 989 -97 q 1035 -129 1035 -121 q 948 -174 1035 -174 q 738 -117 861 -174 q 557 1 614 -60 q 339 472 518 149 l 240 357 l 240 267 z "},"L":{"ha":561,"x_min":-103,"x_max":622,"o":"m 240 267 q 247 67 240 168 q 338 58 296 58 q 511 92 440 58 q 528 162 528 125 q 514 214 528 199 l 515 224 q 585 282 550 244 q 612 268 601 281 q 622 239 622 256 q 562 93 622 163 q 421 -10 501 24 q 289 1 368 1 q 114 -21 210 1 l 106 -14 q 140 264 125 68 q 154 596 154 460 q 149 817 154 732 q 210 838 178 832 l 211 847 q 8 797 67 842 q -8 727 -8 764 q 6 675 -8 690 l 4 665 q -65 607 -31 644 q -92 621 -82 608 q -103 650 -103 633 q -35 805 -103 726 q 113 915 32 883 q 222 904 175 904 q 285 908 269 904 l 293 901 q 240 267 240 656 z "},"M":{"ha":967,"x_min":-71,"x_max":854,"o":"m 351 853 q 454 426 351 753 l 497 290 l 507 293 q 531 406 507 328 l 663 828 q 671 872 671 854 q 667 899 671 890 l 671 908 q 738 904 697 904 q 844 924 779 904 l 854 917 q 824 439 824 756 q 853 0 824 122 q 711 -21 783 -4 l 701 -14 q 733 391 733 157 q 718 754 733 625 l 713 754 q 550 253 579 382 q 538 169 540 210 q 417 110 485 153 l 400 121 q 403 167 403 151 q 264 717 403 301 l 258 715 q 181 0 183 261 q 38 -19 113 -1 l 29 -12 q 131 383 72 113 q 208 817 189 654 q 256 838 232 831 l 257 847 q 40 797 99 842 q 24 727 24 764 q 38 675 24 690 l 36 665 q -33 607 1 644 q -60 621 -50 608 q -71 650 -71 633 q -3 805 -71 726 q 144 915 64 883 q 267 904 214 904 q 351 922 321 904 l 360 915 q 351 853 351 886 z "},"N":{"ha":850,"x_min":-103,"x_max":733,"o":"m 733 918 q 699 648 714 833 q 683 292 683 463 q 704 0 683 122 q 600 -18 643 -6 l 590 -14 q 300 583 544 131 q 222 715 263 654 l 217 713 q 229 257 217 464 q 253 0 242 50 q 115 -21 181 -4 l 107 -14 q 140 262 126 68 q 154 603 154 456 q 146 817 154 750 q 193 838 169 831 l 194 847 q 88 835 129 844 q 8 797 47 826 q -8 727 -8 764 q 6 675 -8 690 l 4 665 q -65 607 -31 644 q -92 621 -82 608 q -103 650 -103 633 q -35 805 -103 726 q 113 915 32 883 q 217 904 175 904 q 281 915 260 904 l 289 908 q 288 888 288 901 q 294 851 288 875 q 558 318 347 692 l 619 207 l 624 208 q 611 654 624 456 q 588 904 599 853 q 725 925 663 908 l 733 918 z "},"O":{"ha":714,"x_min":53,"x_max":661,"o":"m 661 574 q 572 215 661 385 q 324 -21 482 44 q 122 80 192 -21 q 53 331 53 181 q 110 624 53 482 l 126 619 q 118 553 118 589 q 167 378 118 443 l 167 354 q 242 119 167 199 q 340 75 285 75 q 433 99 396 75 q 517 307 486 174 q 547 550 547 440 q 368 828 547 828 q 278 806 315 828 q 211 703 236 767 q 186 579 186 639 q 299 457 186 457 q 365 474 339 457 q 382 544 382 507 q 368 596 382 581 l 369 606 q 439 664 404 626 q 466 650 456 663 q 476 621 476 638 q 411 465 476 529 q 244 369 346 400 q 135 553 135 397 q 209 766 135 664 q 392 925 283 868 q 661 574 661 925 z "},"P":{"ha":654,"x_min":-103,"x_max":635,"o":"m 400 904 q 576 864 518 904 q 635 705 635 824 q 542 510 635 586 q 313 433 450 433 l 317 475 q 518 672 518 475 q 485 806 518 760 q 376 853 453 853 q 278 849 325 853 q 240 267 240 611 q 256 0 240 71 q 114 -21 178 -4 l 106 -14 q 140 264 125 68 q 154 596 154 460 q 149 817 154 732 q 210 838 178 832 l 211 847 q 8 797 67 842 q -8 727 -8 764 q 6 675 -8 690 l 4 665 q -65 607 -31 644 q -92 621 -82 608 q -103 650 -103 633 q -35 805 -103 726 q 113 915 32 883 q 400 904 208 904 z "},"Q":{"ha":714,"x_min":-8,"x_max":910,"o":"m 247 -10 q 102 110 151 17 q 53 329 53 204 q 90 571 53 454 q 205 784 126 688 q 392 925 283 881 q 661 574 661 925 q 572 215 661 385 q 324 -21 482 44 q 278 -39 318 -24 q 222 -61 239 -54 q 136 -114 167 -85 l 143 -122 q 296 -62 213 -79 q 427 -122 342 -69 q 596 -220 513 -174 q 728 -267 679 -267 q 777 -232 757 -267 q 797 -162 797 -197 l 803 -153 q 893 -139 849 -153 q 910 -169 910 -151 q 841 -254 910 -212 q 692 -317 772 -296 q 561 -339 613 -339 q 210 -139 344 -139 q 11 -231 99 -139 l -8 -212 q 247 -10 100 -76 m 547 550 q 368 828 547 828 q 278 806 315 828 q 196 590 225 711 q 167 376 167 468 q 183 224 167 285 q 242 119 200 164 q 340 75 285 75 q 433 99 396 75 q 517 307 486 174 q 547 550 547 440 z "},"R":{"ha":731,"x_min":-103,"x_max":721,"o":"m 400 904 q 577 869 519 904 q 635 735 635 833 q 583 571 635 638 q 444 474 531 504 q 605 182 517 331 q 721 0 693 33 q 569 -19 628 -6 l 560 -15 q 350 454 529 129 q 313 453 338 453 l 317 494 q 518 692 518 494 q 486 811 518 769 q 376 853 454 853 q 278 849 325 853 q 240 267 240 611 q 256 0 240 71 q 114 -21 178 -4 l 106 -14 q 140 264 125 68 q 154 596 154 460 q 149 817 154 732 q 210 838 178 832 l 211 847 q 8 797 67 842 q -8 727 -8 764 q 6 675 -8 690 l 4 665 q -65 607 -31 644 q -92 621 -82 608 q -103 650 -103 633 q -35 805 -103 726 q 113 915 32 883 q 400 904 208 904 z "},"S":{"ha":594,"x_min":-12,"x_max":547,"o":"m 75 160 q 128 17 75 67 q 283 -60 181 -32 q 385 84 338 -11 q 432 230 432 179 q 394 322 432 281 q 301 399 356 364 q 194 471 247 435 q 102 552 140 507 q 64 644 64 597 q 138 803 64 719 q 293 925 213 886 q 434 904 356 904 q 539 911 513 904 l 547 896 q 468 654 468 821 l 451 654 q 425 788 431 721 l 397 799 q 250 825 331 825 q 153 708 153 774 q 211 612 153 661 q 340 526 269 563 q 468 438 410 490 q 526 332 526 385 q 446 67 526 204 q 247 -160 365 -71 q 67 -78 147 -144 q -12 76 -12 -11 q 71 260 4 183 q 239 338 138 338 q 268 327 256 338 q 282 300 281 317 q 224 231 244 265 l 214 229 q 162 243 199 243 q 92 226 125 243 q 75 160 75 200 z "},"T":{"ha":613,"x_min":-33,"x_max":694,"o":"m 201 925 q 350 911 226 924 q 521 899 474 899 q 585 904 568 899 q 679 992 643 963 l 694 983 q 615 793 631 901 l 583 803 q 385 833 500 824 q 350 335 350 599 q 365 0 350 71 q 224 -21 288 -4 l 215 -14 q 251 281 238 86 q 264 600 264 475 q 258 807 264 725 q 319 828 288 822 l 321 838 q 256 840 290 840 q 71 796 115 840 q 61 735 61 776 q 75 678 61 693 l 74 668 q 4 610 39 647 q -23 624 -12 611 q -33 653 -33 636 q 41 813 -33 732 q 201 925 115 893 z "},"U":{"ha":821,"x_min":-108,"x_max":708,"o":"m 133 285 q 149 635 133 285 q 143 817 149 732 q 204 838 172 832 l 206 847 q 3 797 61 842 q -14 727 -14 764 q 0 675 -14 690 l -1 665 q -71 607 -36 644 q -98 621 -87 608 q -108 650 -108 633 q -41 805 -108 726 q 107 915 26 883 q 217 904 169 904 q 279 908 264 904 l 288 901 q 239 376 239 628 q 252 198 239 231 q 279 140 265 165 q 372 82 306 93 q 561 289 476 151 q 574 651 574 472 q 558 901 574 831 q 700 922 636 906 l 708 915 q 673 621 686 815 q 660 249 660 426 q 675 0 660 71 q 533 -21 597 -4 l 525 -14 q 554 203 540 58 l 550 204 q 338 -21 463 50 q 178 69 222 -10 q 133 285 133 147 z "},"V":{"ha":703,"x_min":-108,"x_max":650,"o":"m 535 714 q 492 872 535 833 l 492 882 q 593 958 556 918 q 650 769 650 910 q 365 -18 650 410 l 358 -21 l 321 1 q 122 79 189 79 q 92 76 108 79 l 85 96 q 129 200 122 126 q 149 585 149 438 q 143 817 149 732 q 204 838 172 832 l 206 847 q 3 797 61 842 q -14 727 -14 764 q 0 675 -14 690 l -1 665 q -71 607 -36 644 q -98 621 -87 608 q -108 650 -108 633 q -41 805 -108 726 q 107 915 26 883 q 217 904 169 904 q 279 908 264 904 l 288 901 q 235 267 240 686 q 236 169 235 206 l 238 168 q 375 88 281 117 q 535 714 535 396 z "},"W":{"ha":1024,"x_min":-108,"x_max":1043,"o":"m 971 776 q 686 -18 971 393 l 679 -21 q 461 143 543 36 q 365 -18 414 54 l 358 -21 l 321 1 q 122 79 189 79 q 92 76 108 79 l 85 96 q 129 200 122 126 q 149 585 149 438 q 143 817 149 732 q 204 838 172 832 l 206 847 q 3 797 61 842 q -14 727 -14 764 q 0 675 -14 690 l -1 665 q -71 607 -36 644 q -98 621 -87 608 q -108 650 -108 633 q -41 805 -108 726 q 107 915 26 883 q 217 904 169 904 q 279 908 264 904 l 288 901 q 235 267 240 678 q 236 169 235 206 l 238 168 q 375 88 281 117 q 515 714 515 397 q 444 894 515 869 l 446 911 q 736 904 553 904 q 1033 965 919 904 l 1043 951 q 957 885 1024 928 q 971 776 971 839 m 635 769 q 511 244 635 550 q 590 151 538 196 q 696 88 643 107 q 856 714 856 392 q 830 835 856 796 q 744 874 804 874 q 628 861 685 874 q 635 769 635 817 z "},"X":{"ha":706,"x_min":-97,"x_max":675,"o":"m 14 797 q -3 727 -3 764 q 11 675 -3 690 l 10 665 q -60 607 -25 644 q -87 621 -76 608 q -97 650 -97 633 q -41 807 -97 729 q 90 915 15 885 q 185 904 146 904 q 240 908 225 904 l 249 901 q 304 739 258 853 q 392 539 350 625 l 435 607 q 532 854 532 767 q 525 901 532 882 l 531 908 q 675 925 618 911 q 610 763 658 850 q 526 629 561 675 q 415 488 492 583 q 675 0 554 194 q 518 -19 593 -3 l 508 -15 q 339 406 456 156 l 275 307 q 183 50 183 164 q 190 3 183 22 l 185 -4 q 40 -21 97 -7 q 315 454 81 160 q 231 620 306 475 q 126 817 157 765 q 188 838 156 832 l 189 847 q 14 797 82 843 z "},"Y":{"ha":679,"x_min":-250,"x_max":678,"o":"m 538 853 q 528 900 538 879 l 533 907 q 678 926 618 910 q 614 759 664 854 q 528 614 564 664 q 396 436 440 490 q 393 222 393 374 q 408 0 393 71 q 267 -21 331 -4 l 258 -14 q 301 408 288 111 q 231 568 260 506 q 154 746 201 631 q -44 1011 76 936 q -69 1013 -50 1013 q -119 1001 -89 1013 q -161 972 -149 990 l -169 969 q -249 1015 -206 997 q -250 1029 -250 1021 q -167 1074 -250 1074 q 33 1031 -85 1074 q 239 925 150 989 q 379 489 279 721 l 449 604 q 538 853 538 756 z "},"Z":{"ha":601,"x_min":-76,"x_max":782,"o":"m 287 837 q 280 839 287 837 q 258 841 272 840 q 220 842 243 842 q 174 833 197 842 q 142 743 142 804 q 146 711 142 725 l 142 701 q 51 661 96 690 q 26 700 26 671 q 128 843 26 765 q 314 949 231 921 q 491 901 421 901 q 594 943 561 901 l 611 931 q 438 632 556 860 l 154 115 q 299 51 228 100 q 414 -47 369 1 q 600 -175 531 -175 q 649 -140 629 -175 q 669 -71 669 -106 l 675 -61 q 765 -47 721 -61 q 782 -78 782 -60 q 713 -162 782 -121 q 565 -226 644 -204 q 433 -247 485 -247 q 250 -46 335 -114 q 82 22 165 22 q 12 10 39 22 q -54 -31 -15 -3 l -76 -10 q 147 306 17 83 l 451 801 l 447 806 q 415 794 438 800 q 388 805 407 797 q 360 815 368 813 q 337 824 353 818 q 311 831 321 829 q 287 837 301 833 z "},"[":{"ha":443,"x_min":94,"x_max":463,"o":"m 340 -268 q 104 -289 190 -268 l 94 -282 q 150 306 117 -185 q 183 877 183 797 q 182 971 183 957 l 193 978 q 426 957 276 957 q 463 957 444 957 l 460 928 q 275 904 353 925 l 197 -215 q 378 -239 269 -236 l 376 -268 q 340 -268 358 -268 z "},"\\":{"ha":369,"x_min":10,"x_max":360,"o":"m 300 -62 l 293 -62 l 97 664 q 10 967 43 865 q 79 996 53 981 l 85 996 q 158 685 108 876 l 279 243 q 360 -24 319 99 q 300 -62 338 -47 z "},"]":{"ha":442,"x_min":-19,"x_max":347,"o":"m 103 957 q 339 978 253 957 l 347 971 q 292 375 326 868 q 258 -194 258 -118 q 260 -282 258 -269 l 250 -289 q 17 -268 167 -268 q -19 -268 -1 -268 l -18 -239 q 168 -215 90 -236 l 246 904 q 64 928 174 925 l 67 957 q 103 957 85 957 z "},"^":{"ha":719,"x_min":69,"x_max":650,"o":"m 360 806 l 110 404 l 69 425 q 321 953 197 644 l 394 967 q 650 425 526 636 l 610 404 l 360 806 z "},"_":{"ha":896,"x_min":1,"x_max":894,"o":"m 42 -186 q 554 -199 276 -199 q 886 -194 832 -199 l 894 -203 l 854 -257 l 13 -257 l 1 -247 l 42 -186 z "},"`":{"ha":278,"x_min":0,"x_max":278,"o":"m 32 994 q 57 997 43 997 q 85 996 71 997 q 278 807 136 903 l 264 783 l 0 921 q 12 959 1 933 q 32 994 22 985 z "},"a":{"ha":653,"x_min":19,"x_max":547,"o":"m 417 239 q 330 247 364 247 q 261 247 296 247 q 190 239 226 247 q 164 83 164 135 q 171 -6 164 32 q 26 -21 81 -6 l 19 -12 l 264 681 q 174 710 211 694 l 179 733 q 369 724 242 724 q 540 732 497 724 l 547 726 q 521 508 532 661 q 510 208 510 354 q 521 -4 510 63 q 393 -21 431 -11 l 388 -15 q 417 239 408 81 m 208 306 q 310 297 239 297 q 421 307 382 297 q 426 526 426 451 q 419 671 426 601 q 381 675 407 675 q 339 671 356 675 q 290 558 317 639 l 208 306 z "},"b":{"ha":632,"x_min":46,"x_max":571,"o":"m 350 736 q 480 703 426 736 q 533 604 533 669 q 374 413 533 474 l 374 408 q 515 372 460 408 q 571 261 571 336 q 488 86 571 165 q 297 -21 404 7 l 269 -12 q 167 8 201 8 q 107 4 132 8 l 100 18 q 131 107 122 43 q 150 458 150 301 q 142 679 150 615 q 46 700 79 686 l 49 724 q 217 730 115 724 q 350 736 318 736 m 332 689 q 263 676 293 689 q 233 211 233 500 q 238 79 233 150 q 338 60 283 60 q 433 97 392 60 q 460 228 460 150 q 279 385 460 385 l 283 428 q 388 456 354 431 q 424 571 424 497 q 332 689 424 689 z "},"c":{"ha":560,"x_min":56,"x_max":526,"o":"m 56 257 q 122 533 56 407 q 311 740 188 660 q 431 724 363 724 q 519 729 499 724 l 526 717 q 465 521 465 657 l 444 521 q 426 619 433 557 l 399 632 q 278 660 338 660 q 267 660 272 660 q 191 490 218 586 q 164 290 164 394 q 202 122 164 186 q 338 57 240 57 q 394 130 374 83 q 415 222 415 176 q 413 250 415 228 l 418 256 q 515 271 478 258 q 431 99 493 181 q 290 -21 369 17 q 119 60 182 -21 q 56 257 56 140 z "},"d":{"ha":661,"x_min":46,"x_max":606,"o":"m 351 736 q 606 428 606 736 q 528 138 606 258 q 297 -21 450 18 l 269 -12 q 168 8 204 8 q 107 4 132 8 l 100 18 q 131 107 122 43 q 150 458 150 301 q 142 679 150 615 q 46 700 79 686 l 49 724 q 217 730 115 724 q 351 736 318 736 m 328 60 q 440 97 399 60 q 500 369 500 200 q 336 689 500 689 q 263 676 294 689 q 233 211 233 500 q 238 79 233 150 q 328 60 286 60 z "},"e":{"ha":536,"x_min":42,"x_max":497,"o":"m 432 617 q 313 663 371 663 q 210 635 254 663 q 200 585 200 615 q 399 410 200 429 l 392 367 q 153 199 153 367 q 190 91 153 129 q 288 53 226 53 q 389 76 350 53 q 399 127 399 96 q 386 171 399 158 l 388 178 q 450 228 426 199 q 488 190 488 225 q 424 58 488 114 q 272 -21 361 3 q 110 35 178 -21 q 42 179 42 90 q 111 324 42 268 q 282 389 181 379 l 282 393 q 144 449 201 404 q 88 564 88 494 q 201 676 126 628 q 357 744 276 725 q 497 715 438 744 q 440 617 463 676 l 432 617 z "},"f":{"ha":533,"x_min":49,"x_max":543,"o":"m 239 419 q 331 411 275 411 q 449 432 386 411 l 454 425 q 436 343 446 404 q 314 357 371 357 q 236 353 257 357 q 233 176 233 300 q 244 -4 233 51 q 117 -21 160 -10 l 110 -15 q 138 208 126 50 q 150 492 150 365 q 140 681 150 619 q 49 711 88 693 l 53 735 q 300 724 125 724 q 536 738 475 724 l 543 725 q 489 551 494 678 l 468 551 q 449 651 456 596 q 350 675 397 675 q 261 669 303 675 q 239 419 246 582 z "},"g":{"ha":593,"x_min":60,"x_max":532,"o":"m 168 301 q 300 61 168 86 q 396 121 353 72 l 396 200 q 392 263 396 236 q 300 301 343 276 l 303 325 q 381 318 344 318 q 507 354 460 318 l 518 346 q 479 -58 485 275 q 367 -176 449 -118 q 221 -233 285 -233 q 192 -224 204 -233 q 179 -200 179 -215 q 242 -135 219 -169 l 249 -133 q 304 -150 271 -150 q 350 -142 338 -150 q 394 58 394 -85 l 394 69 q 336 18 375 47 q 271 -21 297 -11 q 118 67 176 -10 q 60 243 60 143 q 128 524 60 389 q 317 740 197 660 q 436 724 368 724 q 525 729 504 724 l 532 717 q 471 521 471 657 l 450 521 q 432 619 439 557 l 404 632 q 283 660 343 660 q 272 660 278 660 q 196 490 224 588 q 168 301 168 392 z "},"h":{"ha":754,"x_min":47,"x_max":650,"o":"m 525 428 l 526 507 q 514 721 526 667 q 643 738 599 726 l 650 732 q 621 495 632 651 q 610 199 610 339 q 622 -4 610 58 q 494 -21 538 -10 l 488 -15 q 524 357 517 118 q 380 365 451 365 q 236 357 308 365 q 233 159 233 268 q 246 -4 233 50 q 118 -21 161 -10 l 111 -15 q 138 210 126 53 q 150 492 150 367 q 140 678 150 618 q 47 700 86 683 l 50 724 q 265 738 183 724 l 272 732 q 239 428 251 632 q 390 415 326 415 q 525 428 454 415 z "},"i":{"ha":378,"x_min":46,"x_max":272,"o":"m 272 732 q 244 494 254 651 q 233 194 233 338 q 246 -4 233 50 q 118 -21 161 -10 l 111 -15 q 138 208 126 51 q 150 490 150 365 q 142 679 150 615 q 46 700 79 686 l 49 724 q 265 738 183 724 l 272 732 z "},"j":{"ha":388,"x_min":-3,"x_max":282,"o":"m -3 -181 q 105 -36 76 -112 q 147 197 133 40 q 160 485 160 354 q 151 679 160 615 q 56 700 89 686 l 58 724 q 275 738 194 724 l 282 732 q 253 494 264 651 q 243 220 243 338 q 254 18 243 103 q 154 -102 226 -40 q 11 -201 82 -164 l -3 -181 z "},"k":{"ha":626,"x_min":47,"x_max":636,"o":"m 235 210 q 246 -4 235 65 q 118 -21 161 -10 l 111 -15 q 139 203 128 49 q 150 492 150 358 q 143 679 150 626 q 47 700 81 686 l 50 724 q 268 738 185 724 l 274 732 q 238 343 246 611 l 369 511 q 422 597 399 547 q 446 668 446 646 q 443 718 446 690 l 447 724 q 582 733 540 724 q 382 432 531 583 l 515 190 q 636 -4 579 72 q 497 -19 533 -11 l 490 -17 q 318 371 465 108 l 235 278 l 235 210 z "},"l":{"ha":486,"x_min":46,"x_max":496,"o":"m 271 733 q 243 493 254 651 q 232 221 232 335 q 236 56 232 107 q 353 47 274 47 q 490 67 432 47 l 496 60 q 479 -17 483 22 q 301 -4 408 -4 q 118 -21 194 -4 l 111 -15 q 138 209 126 51 q 150 493 150 367 q 140 681 150 619 q 46 700 75 688 l 49 724 q 267 739 182 724 l 271 733 z "},"m":{"ha":861,"x_min":56,"x_max":747,"o":"m 325 682 q 407 353 325 615 l 442 243 l 450 246 q 469 336 450 276 l 575 661 q 582 699 582 686 q 578 719 582 711 l 582 726 q 648 724 610 724 q 739 739 686 724 l 747 733 q 722 349 722 604 q 746 -4 722 93 q 614 -21 664 -10 l 607 -15 q 632 310 632 121 q 619 597 632 499 l 615 597 q 475 132 482 226 q 378 85 432 118 l 364 93 q 367 131 367 118 q 254 567 367 233 l 250 565 q 188 -4 190 207 q 63 -19 121 -7 l 56 -14 q 144 332 94 97 q 203 679 194 567 q 104 700 138 686 l 107 724 q 325 738 242 724 l 332 732 q 325 682 325 713 z "},"n":{"ha":739,"x_min":43,"x_max":636,"o":"m 636 735 q 608 517 619 667 q 596 234 596 367 q 613 -4 596 101 q 519 -18 544 -12 l 511 -15 q 338 340 485 74 q 275 456 299 411 q 215 557 251 501 l 211 556 q 221 195 211 354 q 240 -4 231 36 q 119 -21 165 -10 l 113 -15 q 139 207 128 50 q 150 483 150 364 q 139 679 150 601 q 43 700 76 686 l 46 724 q 256 738 172 724 q 310 598 267 689 q 382 453 353 507 q 486 265 411 400 l 535 176 l 538 178 q 528 528 538 376 q 510 724 518 681 q 629 740 586 729 l 636 735 z "},"o":{"ha":636,"x_min":56,"x_max":581,"o":"m 472 440 q 326 660 472 660 q 250 642 279 660 q 164 283 164 488 q 200 128 164 194 q 307 63 236 63 q 382 82 353 63 q 449 247 425 142 q 472 440 472 351 m 290 -21 q 119 62 182 -21 q 56 281 56 144 q 135 556 56 417 q 346 744 214 694 q 522 667 464 744 q 581 449 581 589 q 500 169 581 310 q 290 -21 419 29 z "},"p":{"ha":569,"x_min":47,"x_max":568,"o":"m 568 571 q 488 403 568 467 q 293 339 407 339 l 296 382 q 457 538 457 382 q 343 689 457 689 q 264 676 301 689 q 233 268 233 478 q 246 -4 233 58 q 118 -21 161 -10 l 111 -15 q 139 207 128 50 q 150 495 150 364 q 142 679 150 626 q 47 700 82 686 l 50 724 q 218 730 114 724 q 363 736 322 736 q 568 571 568 736 z "},"q":{"ha":635,"x_min":56,"x_max":826,"o":"m 56 264 q 135 556 56 417 q 346 744 214 694 q 522 667 464 744 q 581 455 581 589 q 510 188 581 321 q 324 -6 440 54 q 498 -88 376 -11 q 671 -165 619 -165 q 708 -140 694 -165 q 721 -86 721 -115 l 725 -78 q 813 -67 776 -78 q 826 -92 826 -76 q 717 -187 826 -144 q 533 -229 608 -229 q 254 -72 363 -72 q 133 -110 188 -72 l 111 -86 q 249 -17 164 -33 q 107 78 158 -1 q 56 264 56 157 m 472 440 q 326 660 472 660 q 250 642 279 660 q 164 283 164 488 q 200 128 164 194 q 307 63 236 63 q 382 82 353 63 q 449 247 425 142 q 472 440 472 351 z "},"r":{"ha":638,"x_min":47,"x_max":636,"o":"m 568 586 q 524 459 568 515 q 413 376 479 403 q 512 194 444 317 q 636 -4 579 72 q 497 -19 533 -11 l 490 -17 q 433 142 479 38 q 325 357 386 247 q 292 356 315 356 l 296 399 q 458 553 458 399 q 433 655 458 621 q 353 689 407 689 q 265 676 300 689 q 233 265 233 482 q 247 -4 233 47 q 118 -21 163 -10 l 111 -15 q 138 208 126 51 q 150 490 150 365 q 142 679 150 615 q 47 701 86 685 l 49 724 q 219 730 114 724 q 363 736 324 736 q 568 586 568 736 z "},"s":{"ha":547,"x_min":35,"x_max":501,"o":"m 247 656 q 199 625 224 647 q 175 580 175 603 q 205 529 175 557 q 277 478 235 501 q 363 432 319 456 q 435 378 406 408 q 465 318 465 349 q 398 135 465 235 q 251 -21 331 35 q 65 106 142 3 l 35 146 q 142 271 103 210 l 164 258 q 149 193 149 228 q 190 120 149 158 q 282 65 232 82 q 343 149 308 83 q 378 247 378 215 q 333 315 378 279 q 235 376 289 350 q 138 440 182 403 q 93 515 93 478 q 154 644 93 581 q 289 739 215 708 q 405 724 336 724 q 494 729 474 724 l 501 717 q 440 521 440 657 l 419 521 q 401 619 408 557 l 382 628 q 247 656 322 653 z "},"t":{"ha":535,"x_min":-10,"x_max":579,"o":"m 181 744 q 301 733 197 743 q 443 724 406 724 q 496 728 481 724 q 558 792 528 767 l 579 778 q 525 632 535 715 l 503 639 q 342 665 440 660 q 313 265 313 472 q 325 -4 313 58 q 197 -21 254 -7 l 190 -15 q 219 224 208 65 q 229 483 229 382 q 222 671 229 585 q 208 671 215 671 q 83 638 117 671 q 76 590 76 619 q 88 547 76 560 l 86 539 q 22 485 53 522 q -10 525 -10 486 q 51 653 -10 589 q 181 744 111 718 z "},"u":{"ha":726,"x_min":44,"x_max":621,"o":"m 131 225 q 143 507 131 225 q 135 679 143 615 q 44 700 81 685 l 46 724 q 263 738 181 724 l 269 732 q 229 299 229 550 q 272 92 229 136 q 331 64 294 71 q 489 233 421 121 q 499 519 499 371 q 486 721 499 667 q 614 738 571 726 l 621 732 q 592 494 603 651 q 582 194 582 338 q 594 -4 582 50 q 467 -21 510 -10 l 460 -15 q 483 153 474 56 l 479 154 q 308 -21 410 31 q 131 225 131 -3 z "},"v":{"ha":628,"x_min":64,"x_max":581,"o":"m 474 569 q 439 697 474 667 l 439 706 q 535 767 522 753 q 581 615 581 728 q 513 294 581 458 q 338 -18 446 129 l 332 -21 l 296 0 q 272 13 290 3 q 248 25 254 22 q 226 35 242 28 q 202 44 211 42 q 181 50 193 47 q 137 57 156 57 q 104 54 118 57 l 99 71 q 133 151 129 94 q 150 476 150 335 q 140 679 150 618 q 64 700 106 683 l 67 724 q 269 738 188 724 l 276 732 q 233 210 238 556 l 233 139 l 235 138 q 349 72 269 96 q 474 569 474 315 z "},"w":{"ha":900,"x_min":64,"x_max":881,"o":"m 451 569 q 399 708 451 690 l 400 729 q 625 724 468 724 q 872 772 782 724 l 881 751 q 825 697 853 715 q 836 621 836 668 q 767 292 836 465 q 593 -18 699 119 l 588 -21 q 414 108 482 24 q 338 -18 381 44 l 332 -21 l 296 0 q 272 13 290 3 q 248 25 254 22 q 226 35 242 28 q 202 44 211 42 q 181 50 193 47 q 137 57 156 57 q 104 54 118 57 l 99 71 q 133 151 129 94 q 150 476 150 335 q 140 679 150 618 q 64 700 106 683 l 67 724 q 269 738 188 724 l 276 732 q 233 210 238 556 l 233 139 l 235 138 q 349 72 269 96 q 451 569 451 300 m 729 569 q 710 664 729 635 q 646 693 690 693 q 551 685 601 693 q 558 615 558 643 q 457 194 558 422 q 520 122 478 157 q 604 72 563 86 q 729 569 729 319 z "},"x":{"ha":583,"x_min":-19,"x_max":558,"o":"m 428 683 q 422 721 428 704 l 426 726 q 557 740 518 731 q 503 610 543 681 q 435 501 464 539 q 346 388 406 463 q 433 222 350 379 q 558 -4 515 65 q 417 -19 474 -7 l 408 -17 q 271 313 364 128 l 228 246 q 156 36 156 135 q 161 -1 156 15 l 157 -7 q 26 -21 67 -11 q 249 358 57 119 l 196 465 q 74 679 156 544 q -19 700 15 686 l -18 724 q 204 738 121 724 q 322 433 232 613 l 353 482 q 428 683 428 606 z "},"y":{"ha":514,"x_min":-50,"x_max":543,"o":"m 313 346 q 311 173 311 294 q 322 -4 311 51 q 196 -21 250 -7 l 189 -15 q 224 324 211 76 l 161 463 q 47 679 94 603 q -50 701 -12 686 l -47 724 q 172 738 89 724 q 292 394 204 600 l 349 486 q 418 679 418 604 q 410 718 418 700 l 414 724 q 543 739 485 724 q 485 594 532 678 q 410 474 438 511 q 313 346 382 436 z "},"z":{"ha":471,"x_min":-33,"x_max":510,"o":"m 401 92 q 399 117 401 103 l 401 124 q 476 160 447 136 q 500 124 500 151 q 412 10 500 71 q 257 -61 324 -50 q 65 8 140 8 q -18 -31 15 8 l -33 -15 q 126 236 6 24 l 368 629 l 364 632 q 339 624 353 625 q 197 661 239 661 q 139 656 156 661 q 118 600 118 628 q 122 560 118 572 l 118 551 q 42 514 74 538 q 22 547 22 522 q 106 667 22 600 q 257 754 190 733 q 401 715 343 715 q 489 753 458 715 l 510 739 q 369 499 471 692 l 139 76 l 144 74 q 169 82 163 81 q 382 32 263 32 q 401 92 401 50 z "},"{":{"ha":417,"x_min":71,"x_max":369,"o":"m 244 839 q 243 785 243 825 q 262 635 243 746 q 281 494 281 525 q 281 457 281 463 q 146 347 256 410 l 146 342 q 264 232 247 281 q 219 47 260 178 q 175 -150 179 -83 q 215 -224 185 -187 q 282 -279 246 -260 l 275 -299 q 156 -223 210 -279 q 101 -110 101 -167 q 133 75 101 -61 q 165 263 165 211 q 139 306 165 289 q 75 328 113 322 l 71 354 q 176 429 174 376 q 178 492 178 451 q 170 614 178 533 q 163 733 163 694 q 164 790 163 772 q 233 910 169 851 q 365 988 297 968 l 369 968 q 294 913 331 949 q 244 839 258 876 z "},"|":{"ha":331,"x_min":124,"x_max":203,"o":"m 200 -276 q 143 -300 175 -290 l 133 -296 q 124 1004 133 661 q 196 1042 171 1024 l 203 1040 q 200 -276 200 843 z "},"}":{"ha":418,"x_min":47,"x_max":347,"o":"m 315 790 q 282 600 311 724 q 253 427 253 476 q 347 354 253 378 l 340 328 q 242 260 246 313 q 240 201 240 242 q 247 83 240 161 q 254 -37 254 4 q 253 -101 254 -79 q 185 -221 249 -162 q 51 -299 121 -279 l 47 -279 q 122 -224 86 -260 q 174 -150 158 -187 q 174 -102 174 -140 q 156 46 174 -64 q 138 190 138 156 q 138 232 138 224 q 272 342 160 278 l 272 347 q 154 457 169 410 q 197 643 157 513 q 243 839 238 774 q 202 913 233 876 q 135 968 171 949 l 142 988 q 261 913 207 968 q 315 801 315 857 q 315 790 315 796 z "},"~":{"ha":792,"x_min":67,"x_max":725,"o":"m 538 358 q 703 440 618 358 l 725 422 q 630 328 693 372 q 507 268 567 285 q 369 310 464 268 q 231 353 274 353 q 89 276 149 353 l 67 294 q 170 395 103 349 q 299 449 238 442 q 538 358 432 358 z "}," ":{"ha":229,"x_min":0,"x_max":0,"o":""},"¡":{"ha":288,"x_min":-19,"x_max":224,"o":"m 26 -278 q 18 -278 22 -278 q -19 -222 1 -261 q 118 418 56 1 l 154 421 l 114 -254 q 26 -278 64 -278 m 224 597 q 185 546 211 576 q 140 503 160 515 q 74 597 107 526 q 110 639 83 615 q 156 674 136 663 q 224 597 190 651 z "},"¢":{"ha":503,"x_min":65,"x_max":483,"o":"m 350 578 l 306 593 l 272 113 q 419 318 371 188 l 451 306 q 267 26 393 128 l 260 -126 l 253 -128 q 215 -107 231 -121 l 229 0 q 108 83 150 15 q 65 239 65 150 q 119 494 65 374 q 274 685 172 615 l 281 817 q 319 825 301 819 l 325 821 q 313 686 319 781 q 417 669 376 669 q 475 675 457 669 l 483 654 q 426 456 426 607 l 407 456 q 388 563 392 511 l 350 578 m 164 303 q 236 121 164 171 l 268 604 l 235 611 q 164 303 164 476 z "},"£":{"ha":522,"x_min":29,"x_max":521,"o":"m 114 186 l 107 346 l 39 342 l 29 349 l 49 404 l 113 404 q 326 747 150 622 q 444 719 394 719 q 513 726 494 719 l 521 703 q 464 507 464 650 l 444 507 q 425 611 428 574 l 388 628 q 276 663 332 653 q 213 407 213 553 q 413 424 292 410 l 422 417 l 401 368 l 210 353 q 149 113 210 203 q 294 96 228 96 q 386 108 360 96 q 435 199 414 171 l 454 189 q 426 69 426 119 q 443 -7 426 19 l 432 -24 q 131 11 303 11 q 42 -10 72 11 l 29 -1 q 94 88 74 46 q 114 186 114 129 z "},"¤":{"ha":788,"x_min":18,"x_max":797,"o":"m 103 388 q 189 599 103 503 q 58 724 136 651 q 96 789 68 761 l 103 789 l 239 643 q 432 726 325 707 q 608 678 543 726 l 722 789 q 794 767 782 768 l 797 761 l 650 632 q 686 496 686 576 q 592 276 686 371 q 751 115 731 135 l 749 110 q 674 88 731 107 l 542 233 q 376 161 469 181 q 189 210 260 161 l 54 88 l 47 88 q 18 153 22 118 q 142 257 74 197 q 103 388 103 308 m 388 651 q 260 615 308 651 q 210 447 210 547 q 258 292 210 347 q 393 236 306 236 q 529 272 481 236 q 581 440 581 339 q 388 651 581 651 z "},"¥":{"ha":618,"x_min":1,"x_max":579,"o":"m 350 246 q 499 254 429 246 l 503 249 q 482 204 489 228 l 350 200 q 363 -4 350 54 q 243 -21 290 -10 l 236 -15 q 263 197 251 53 q 118 186 160 192 l 114 192 q 153 236 140 218 l 267 242 q 269 300 269 278 q 118 288 181 296 l 114 293 q 153 338 140 319 l 263 343 q 235 404 253 364 q 94 688 142 611 q 1 707 38 694 l 3 726 q 88 726 24 726 q 225 739 151 726 q 339 383 254 578 l 385 465 q 457 681 457 593 q 450 719 457 704 l 454 725 q 579 740 531 728 q 517 585 567 665 q 488 535 499 554 q 453 483 478 517 q 419 438 429 450 q 354 349 372 371 q 499 356 440 349 l 503 350 q 482 306 489 329 l 350 301 l 350 246 z "},"¦":{"ha":340,"x_min":131,"x_max":210,"o":"m 207 472 q 150 449 182 458 l 140 453 q 131 1007 139 706 q 203 1044 178 1026 l 210 1043 q 207 472 207 846 m 207 -275 q 150 -299 182 -289 l 140 -294 q 131 260 139 -42 q 203 297 178 279 l 210 296 q 207 -275 207 99 z "},"§":{"ha":540,"x_min":6,"x_max":531,"o":"m 7 365 q 157 572 7 471 q 97 674 97 622 q 167 815 97 746 q 324 925 238 883 q 442 899 396 899 q 517 919 489 899 l 531 901 q 422 789 453 831 l 379 807 q 261 842 311 835 q 186 753 186 800 q 222 683 186 719 q 308 614 257 646 q 408 549 358 582 q 529 400 529 468 q 379 193 529 294 q 439 92 439 138 q 369 -49 439 19 q 213 -160 299 -118 q 94 -133 140 -133 q 19 -154 47 -133 l 6 -136 q 114 -24 83 -65 l 157 -42 q 275 -76 225 -69 q 350 13 350 -33 q 229 151 350 74 q 128 217 179 183 q 7 365 7 297 m 440 321 q 407 390 440 357 q 292 476 374 424 q 192 543 211 529 q 96 444 96 499 q 130 374 96 408 q 243 289 164 340 q 344 221 322 238 q 440 321 440 265 z "},"¨":{"ha":379,"x_min":0,"x_max":379,"o":"m 379 890 q 341 839 367 869 q 296 796 315 808 q 229 890 263 819 q 265 932 239 908 q 311 967 292 956 q 379 890 346 944 m 150 890 q 112 839 138 869 q 67 796 86 808 q 0 890 33 819 q 36 932 10 908 q 82 967 63 956 q 150 890 117 944 z "},"©":{"ha":1063,"x_min":50,"x_max":996,"o":"m 510 165 q 372 227 425 165 q 319 389 319 289 q 374 585 319 489 q 525 744 428 682 q 617 732 563 732 q 686 736 671 732 l 692 726 q 646 575 646 682 l 622 575 q 608 643 613 604 l 592 651 q 503 672 547 672 l 492 672 q 418 411 418 558 q 447 280 418 326 q 546 233 475 233 q 597 351 597 275 q 594 372 597 356 l 599 376 q 683 390 656 379 q 510 165 650 226 m 510 -21 q 412 -21 510 -21 q 182 111 314 -21 q 50 435 50 243 q 192 776 50 626 q 533 925 335 925 q 863 792 731 925 q 996 467 996 658 q 851 127 996 275 q 510 -21 707 -21 m 935 463 q 935 548 935 463 q 819 750 935 633 q 535 867 703 867 q 240 740 368 867 q 111 442 111 614 q 226 153 111 269 q 510 38 340 38 q 808 165 681 38 q 935 463 935 292 z "},"ª":{"ha":610,"x_min":88,"x_max":590,"o":"m 88 540 q 144 776 88 663 q 301 933 201 890 q 426 893 361 933 q 468 969 443 932 l 483 965 q 447 644 447 869 q 456 463 447 522 q 524 551 490 493 q 574 660 558 608 l 590 657 q 525 486 569 569 q 422 360 481 403 q 375 413 388 372 q 363 568 363 454 q 378 653 365 592 l 367 654 q 301 482 347 565 q 189 360 254 399 q 114 424 140 368 q 88 540 88 479 m 179 576 q 217 458 179 474 q 319 621 271 499 q 368 818 368 743 q 274 857 326 857 q 231 842 246 857 q 179 576 179 738 z "},"«":{"ha":621,"x_min":64,"x_max":592,"o":"m 190 393 l 314 174 l 283 154 q 64 374 175 300 l 67 401 q 339 610 208 474 l 364 592 l 190 393 m 435 396 l 547 197 l 517 178 q 308 376 407 311 l 311 404 q 568 592 460 479 l 592 574 l 435 396 z "},"¬":{"ha":764,"x_min":71,"x_max":693,"o":"m 621 331 l 82 331 l 71 340 l 83 411 q 471 399 318 399 q 678 403 624 399 l 686 394 q 693 122 686 306 l 686 114 l 621 126 l 621 331 z "},"®":{"ha":603,"x_min":29,"x_max":574,"o":"m 294 422 q 237 422 294 422 q 105 498 181 422 q 29 688 29 574 q 111 884 29 801 q 308 967 193 967 q 498 890 422 967 q 574 701 574 814 q 490 505 574 588 q 294 422 407 422 m 310 917 q 263 917 310 917 q 147 852 215 917 q 79 693 79 788 q 139 534 79 599 q 293 469 199 469 q 454 535 388 469 q 521 696 521 601 q 463 853 521 790 q 310 917 404 917 m 188 840 l 321 844 q 403 782 403 844 q 344 706 403 729 q 366 669 353 690 q 390 626 379 647 q 429 565 401 606 q 353 560 381 565 l 350 561 q 297 699 335 621 l 285 699 l 288 721 q 338 775 338 721 q 306 819 338 819 q 282 814 292 819 q 274 663 274 744 q 278 565 274 582 q 207 560 214 561 l 204 563 q 218 713 218 626 q 214 818 218 799 q 186 828 197 822 l 188 840 z "},"¯":{"ha":357,"x_min":0,"x_max":357,"o":"m 82 915 q 224 913 165 913 q 347 917 283 913 l 357 911 l 331 844 l 11 842 l 0 849 l 26 919 l 82 915 z "},"°":{"ha":506,"x_min":58,"x_max":447,"o":"m 240 550 q 107 591 156 550 q 58 712 58 632 q 122 851 58 792 q 278 926 186 911 q 447 781 447 926 q 388 630 447 694 q 240 550 329 565 m 249 872 q 167 849 194 872 q 140 747 140 808 q 257 604 140 604 q 339 628 311 604 q 365 729 365 667 q 249 872 365 872 z "},"±":{"ha":764,"x_min":69,"x_max":696,"o":"m 415 371 q 428 125 415 257 l 364 113 l 350 122 l 350 371 l 92 371 l 81 381 l 93 451 q 350 442 263 443 l 350 661 l 415 674 l 422 665 q 415 442 415 543 l 415 440 q 550 439 467 439 q 688 443 633 439 l 696 435 l 683 371 l 415 371 m 82 81 q 470 68 318 68 q 676 72 622 68 l 685 64 l 672 0 l 81 0 l 69 10 l 82 81 z "},"²":{"ha":458,"x_min":38,"x_max":388,"o":"m 128 568 q 229 564 169 564 q 324 582 289 564 q 363 649 344 625 l 379 642 q 358 550 358 586 q 369 494 358 514 l 363 482 q 188 496 297 496 q 49 471 79 496 l 38 476 q 97 594 54 535 q 179 692 139 653 q 251 782 219 732 q 282 879 282 832 q 217 960 282 960 q 161 947 186 960 q 154 905 154 919 q 165 879 154 890 l 164 872 q 118 828 135 849 q 97 837 106 828 q 88 858 88 846 q 139 967 88 914 q 251 1039 190 1019 q 353 994 321 1039 q 386 879 386 949 q 386 868 386 874 q 313 767 361 818 q 210 665 264 717 q 128 568 157 613 z "},"³":{"ha":500,"x_min":65,"x_max":413,"o":"m 313 676 q 201 779 313 779 q 169 776 189 779 l 161 804 q 317 943 260 850 q 222 956 258 956 q 172 951 185 956 q 135 886 151 908 l 117 894 q 138 981 138 942 q 128 1040 138 1021 l 138 1051 q 310 1022 183 1022 q 407 1026 372 1022 l 413 1011 q 272 844 367 917 l 272 840 q 407 714 407 832 q 347 583 407 650 q 214 472 286 515 q 143 509 181 482 q 83 567 106 536 l 65 592 q 138 672 107 629 l 151 667 q 143 629 143 649 q 175 578 143 610 q 238 535 207 547 q 313 676 313 583 z "},"´":{"ha":278,"x_min":0,"x_max":278,"o":"m 193 996 q 221 997 207 997 q 246 994 235 997 q 266 959 256 985 q 278 921 276 933 l 14 783 l 0 807 q 193 996 142 903 z "},"µ":{"ha":708,"x_min":86,"x_max":699,"o":"m 201 210 q 253 89 201 107 q 381 291 321 138 q 440 540 440 444 q 429 653 440 594 q 544 674 469 656 l 553 667 q 525 367 525 571 q 536 97 525 163 q 618 206 578 133 q 679 343 658 279 l 699 339 q 621 132 672 232 q 499 -21 569 32 q 443 44 457 -6 q 429 232 429 93 q 449 335 436 289 l 435 336 q 353 128 410 229 q 217 -21 296 26 q 179 -1 197 -17 q 208 -272 179 -147 l 204 -276 q 99 -304 143 -287 l 86 -294 q 113 199 106 -161 l 118 460 q 118 533 118 475 q 110 649 118 590 l 115 653 q 243 674 194 661 l 251 667 q 201 210 201 478 z "},"¶":{"ha":797,"x_min":42,"x_max":729,"o":"m 336 914 l 510 904 l 515 897 q 461 451 482 744 l 447 251 q 394 -26 432 47 q 276 -144 347 -118 q 176 -160 233 -160 q 148 -149 160 -160 q 136 -122 136 -139 q 200 -53 181 -87 l 210 -51 q 266 -65 228 -65 q 329 -54 304 -65 q 383 182 372 31 l 399 414 q 351 410 374 410 q 131 488 219 410 q 42 690 42 565 q 336 914 42 914 m 729 922 q 636 693 672 881 q 600 292 600 506 q 621 0 600 78 q 479 -21 543 -4 l 474 -15 q 533 431 507 75 q 582 904 558 786 q 719 940 651 908 l 729 922 z "},"·":{"ha":278,"x_min":64,"x_max":214,"o":"m 214 396 q 176 344 201 375 q 131 301 150 314 q 64 396 97 325 q 100 438 74 414 q 146 472 126 461 q 214 396 181 450 z "},"¸":{"ha":258,"x_min":0,"x_max":258,"o":"m 258 -165 q 257 -185 258 -175 q 117 -299 201 -271 q 0 -269 56 -299 q 28 -215 19 -236 l 33 -212 q 124 -247 74 -247 q 160 -240 149 -247 q 178 -187 178 -219 q 149 -145 178 -156 q 71 -135 121 -135 l 63 -129 l 147 19 l 188 22 l 140 -64 l 144 -68 q 230 -97 201 -68 q 258 -165 258 -125 z "},"¹":{"ha":417,"x_min":88,"x_max":306,"o":"m 253 643 q 257 529 253 568 q 306 508 279 514 l 300 485 q 225 488 285 488 q 94 464 165 488 l 88 486 q 153 517 111 499 q 174 864 174 656 l 174 924 q 106 913 138 915 l 99 935 q 210 1026 164 964 q 281 1043 256 1035 l 289 1039 q 253 643 253 914 z "},"º":{"ha":544,"x_min":88,"x_max":457,"o":"m 311 446 q 361 703 361 554 q 274 853 361 853 q 226 839 249 853 q 178 585 178 732 q 198 477 178 522 q 264 432 218 432 q 311 446 289 432 m 250 360 q 129 420 171 360 q 88 582 88 481 q 141 784 88 683 q 289 925 194 885 q 457 715 457 925 q 401 501 457 603 q 250 360 344 399 z "},"»":{"ha":624,"x_min":29,"x_max":560,"o":"m 257 174 l 433 393 l 313 592 l 338 610 q 560 401 436 472 l 557 374 q 282 154 433 306 l 257 174 m 29 197 l 189 396 l 79 574 l 106 592 q 315 404 186 481 l 313 376 q 54 178 196 310 l 29 197 z "},"¼":{"ha":1111,"x_min":99,"x_max":1000,"o":"m 143 -58 l 136 -57 q 99 -1 114 -37 q 289 222 244 165 l 675 710 q 878 978 765 824 q 950 968 907 971 l 956 964 q 749 708 907 908 l 143 -58 m 903 165 q 907 60 903 94 q 956 39 929 44 l 950 15 q 872 19 928 19 q 744 -4 815 19 l 738 18 q 803 49 761 31 q 815 165 813 114 l 601 165 l 597 179 q 824 554 732 333 q 935 578 907 564 l 943 574 q 925 511 931 533 q 903 221 908 442 q 994 238 956 221 l 1000 232 q 983 161 989 204 q 903 165 942 165 m 819 464 q 700 229 763 326 q 819 222 763 222 l 826 464 l 819 464 m 283 533 q 288 419 283 458 q 336 399 310 404 l 331 375 q 256 378 315 378 q 125 354 196 378 l 118 376 q 183 407 142 389 q 204 754 204 546 l 204 814 q 136 803 168 806 l 129 825 q 240 917 194 854 q 311 933 286 925 l 319 929 q 283 533 283 804 z "},"½":{"ha":1111,"x_min":99,"x_max":988,"o":"m 143 -58 l 136 -57 q 99 -1 114 -37 q 289 222 244 165 l 675 710 q 878 978 765 824 q 950 968 907 971 l 956 964 q 749 708 907 908 l 143 -58 m 283 533 q 288 419 283 458 q 336 399 310 404 l 331 375 q 256 378 315 378 q 125 354 196 378 l 118 376 q 183 407 142 389 q 204 754 204 546 l 204 814 q 136 803 168 806 l 129 825 q 240 917 194 854 q 311 933 286 925 l 319 929 q 283 533 283 804 m 728 94 q 829 90 769 90 q 924 108 889 90 q 963 175 944 151 l 979 168 q 958 76 958 111 q 969 21 958 40 l 963 8 q 788 22 897 22 q 649 -3 679 22 l 638 3 q 697 120 654 61 q 779 219 739 179 q 851 308 819 258 q 882 406 882 358 q 817 486 882 486 q 761 474 786 486 q 754 431 754 446 q 765 406 754 417 l 764 399 q 718 354 735 375 q 697 363 706 354 q 688 385 688 372 q 739 493 688 440 q 851 565 790 546 q 953 520 921 565 q 986 406 986 475 q 986 394 986 400 q 913 294 961 344 q 810 191 864 243 q 728 94 757 139 z "},"¾":{"ha":1111,"x_min":35,"x_max":1000,"o":"m 282 567 q 171 669 282 669 q 139 667 158 669 l 131 694 q 286 833 229 740 q 191 846 228 846 q 142 842 154 846 q 104 776 121 799 l 86 785 q 107 872 107 833 q 97 931 107 911 l 107 942 q 279 913 153 913 q 376 917 342 913 l 382 901 q 242 735 336 807 l 242 731 q 376 604 376 722 q 316 473 376 540 q 183 363 256 406 q 113 399 150 372 q 53 457 75 426 l 35 482 q 107 563 76 519 l 121 557 q 113 519 113 539 q 144 469 113 500 q 207 425 176 438 q 282 567 282 474 m 143 -58 l 136 -57 q 99 -1 114 -37 q 289 222 244 165 l 675 710 q 878 978 765 824 q 950 968 907 971 l 956 964 q 749 708 907 908 l 143 -58 m 903 165 q 907 60 903 94 q 956 39 929 44 l 950 15 q 872 19 928 19 q 744 -4 815 19 l 738 18 q 803 49 761 31 q 815 165 813 114 l 601 165 l 597 179 q 824 554 732 333 q 935 578 907 564 l 943 574 q 925 511 931 533 q 903 221 908 442 q 994 238 956 221 l 1000 232 q 983 161 989 204 q 903 165 942 165 m 819 464 q 700 229 763 326 q 819 222 763 222 l 826 464 l 819 464 z "},"¿":{"ha":351,"x_min":-75,"x_max":310,"o":"m 222 213 q 96 53 149 140 q 43 -117 43 -35 q 131 -199 43 -199 q 206 -183 174 -199 q 222 -133 222 -160 q 213 -97 222 -106 l 215 -87 q 279 -32 254 -62 q 310 -62 310 -32 q 244 -197 310 -140 q 88 -285 179 -254 q -40 -239 -6 -285 q -75 -92 -75 -193 q 35 69 -37 -15 q 64 103 57 96 q 129 179 107 157 q 155 277 135 199 q 188 400 175 356 l 224 403 l 222 213 m 288 597 q 249 546 275 576 q 204 503 224 515 q 138 597 171 526 q 174 639 147 615 q 219 674 200 663 q 288 597 254 651 z "},"À":{"ha":728,"x_min":-6,"x_max":621,"o":"m 476 314 q 376 322 426 322 q 281 322 325 322 q 197 314 236 322 q 161 85 161 178 q 171 -1 161 47 q 8 -21 75 -1 l -1 -10 l 288 818 q 335 838 308 831 l 336 847 q 106 797 163 840 q 89 727 89 764 q 103 675 89 690 l 101 665 q 32 607 67 644 q 5 621 15 608 q -6 650 -6 633 q 62 805 -6 726 q 210 915 129 883 q 425 904 297 904 q 613 915 553 904 l 621 908 q 588 636 601 826 q 574 263 574 446 q 589 0 574 81 q 447 -21 503 -6 l 439 -14 q 476 314 461 89 m 217 383 q 344 374 253 374 q 481 385 435 374 q 488 641 488 535 q 479 844 488 747 q 435 849 463 849 q 386 844 407 849 q 319 699 351 799 l 217 383 m 465 1018 l 190 1122 q 199 1160 190 1135 q 215 1197 207 1186 q 269 1204 236 1204 q 360 1116 300 1161 q 478 1043 421 1071 l 465 1018 z "},"Á":{"ha":728,"x_min":-6,"x_max":694,"o":"m 476 314 q 376 322 426 322 q 281 322 325 322 q 197 314 236 322 q 161 85 161 178 q 171 -1 161 47 q 8 -21 75 -1 l -1 -10 l 288 818 q 335 838 308 831 l 336 847 q 106 797 163 840 q 89 727 89 764 q 103 675 89 690 l 101 665 q 32 607 67 644 q 5 621 15 608 q -6 650 -6 633 q 62 805 -6 726 q 210 915 129 883 q 425 904 297 904 q 613 915 553 904 l 621 908 q 588 636 601 826 q 574 263 574 446 q 589 0 574 81 q 447 -21 503 -6 l 439 -14 q 476 314 461 89 m 217 383 q 344 374 253 374 q 481 385 435 374 q 488 641 488 535 q 479 844 488 747 q 435 849 463 849 q 386 844 407 849 q 319 699 351 799 l 217 383 m 694 1122 l 419 1018 l 407 1043 q 524 1116 464 1071 q 615 1204 585 1161 q 669 1197 649 1204 q 686 1160 678 1186 q 694 1122 694 1135 z "},"Â":{"ha":728,"x_min":-6,"x_max":646,"o":"m 476 314 q 376 322 426 322 q 281 322 325 322 q 197 314 236 322 q 161 85 161 178 q 171 -1 161 47 q 8 -21 75 -1 l -1 -10 l 288 818 q 335 838 308 831 l 336 847 q 106 797 163 840 q 89 727 89 764 q 103 675 89 690 l 101 665 q 32 607 67 644 q 5 621 15 608 q -6 650 -6 633 q 62 805 -6 726 q 210 915 129 883 q 425 904 297 904 q 613 915 553 904 l 621 908 q 588 636 601 826 q 574 263 574 446 q 589 0 574 81 q 447 -21 503 -6 l 439 -14 q 476 314 461 89 m 217 383 q 344 374 253 374 q 481 385 435 374 q 488 641 488 535 q 479 844 488 747 q 435 849 463 849 q 386 844 407 849 q 319 699 351 799 l 217 383 m 451 1107 l 281 997 l 265 1019 q 463 1229 399 1119 l 493 1229 q 646 1017 539 1106 l 625 1000 l 451 1107 z "},"Ã":{"ha":728,"x_min":-6,"x_max":672,"o":"m 476 314 q 376 322 426 322 q 281 322 325 322 q 197 314 236 322 q 161 85 161 178 q 171 -1 161 47 q 8 -21 75 -1 l -1 -10 l 288 818 q 335 838 308 831 l 336 847 q 106 797 163 840 q 89 727 89 764 q 103 675 89 690 l 101 665 q 32 607 67 644 q 5 621 15 608 q -6 650 -6 633 q 62 805 -6 726 q 210 915 129 883 q 425 904 297 904 q 613 915 553 904 l 621 908 q 588 636 601 826 q 574 263 574 446 q 589 0 574 81 q 447 -21 503 -6 l 439 -14 q 476 314 461 89 m 217 383 q 344 374 253 374 q 481 385 435 374 q 488 641 488 535 q 479 844 488 747 q 435 849 463 849 q 386 844 407 849 q 319 699 351 799 l 217 383 m 425 1174 q 557 1128 496 1128 q 650 1161 618 1128 l 672 1144 q 539 1038 619 1071 q 450 1060 514 1038 q 361 1083 386 1083 q 283 1050 314 1083 l 260 1067 q 425 1174 313 1139 z "},"Ä":{"ha":728,"x_min":-6,"x_max":646,"o":"m 476 314 q 376 322 426 322 q 281 322 325 322 q 197 314 236 322 q 161 85 161 178 q 171 -1 161 47 q 8 -21 75 -1 l -1 -10 l 288 818 q 335 838 308 831 l 336 847 q 106 797 163 840 q 89 727 89 764 q 103 675 89 690 l 101 665 q 32 607 67 644 q 5 621 15 608 q -6 650 -6 633 q 62 805 -6 726 q 210 915 129 883 q 425 904 297 904 q 613 915 553 904 l 621 908 q 588 636 601 826 q 574 263 574 446 q 589 0 574 81 q 447 -21 503 -6 l 439 -14 q 476 314 461 89 m 217 383 q 344 374 253 374 q 481 385 435 374 q 488 641 488 535 q 479 844 488 747 q 435 849 463 849 q 386 844 407 849 q 319 699 351 799 l 217 383 m 646 1115 q 608 1064 633 1094 q 563 1021 582 1033 q 496 1115 529 1044 q 532 1157 506 1133 q 578 1192 558 1181 q 646 1115 613 1169 m 417 1115 q 378 1064 404 1094 q 333 1021 353 1033 q 267 1115 300 1044 q 303 1157 276 1133 q 349 1192 329 1181 q 417 1115 383 1169 z "},"Å":{"ha":728,"x_min":-6,"x_max":621,"o":"m 525 1105 q 525 1124 525 1105 q 506 1162 525 1143 q 457 1181 486 1181 q 411 1168 428 1181 q 388 1094 388 1140 q 458 1026 388 1026 q 501 1039 486 1026 q 525 1105 525 1067 m 442 978 q 353 1001 389 978 q 318 1074 318 1024 q 365 1167 318 1125 q 479 1229 411 1210 q 594 1144 594 1229 q 551 1040 594 1083 q 442 978 507 997 m 476 314 q 376 322 426 322 q 281 322 325 322 q 197 314 236 322 q 161 85 161 178 q 171 -1 161 47 q 8 -21 75 -1 l -1 -10 l 288 818 q 335 838 308 831 l 336 847 q 106 797 163 840 q 89 727 89 764 q 103 675 89 690 l 101 665 q 32 607 67 644 q 5 621 15 608 q -6 650 -6 633 q 62 805 -6 726 q 210 915 129 883 q 425 904 297 904 q 613 915 553 904 l 621 908 q 588 636 601 826 q 574 263 574 446 q 589 0 574 81 q 447 -21 503 -6 l 439 -14 q 476 314 461 89 m 217 383 q 344 374 253 374 q 481 385 435 374 q 488 641 488 535 q 479 844 488 747 q 435 849 463 849 q 386 844 407 849 q 319 699 351 799 l 217 383 z "},"Æ":{"ha":911,"x_min":-1,"x_max":921,"o":"m 801 254 q 797 288 801 269 l 804 294 q 911 310 869 297 q 812 118 893 218 q 646 -21 731 18 q 475 97 515 -21 q 447 286 447 179 q 449 350 447 317 l 453 449 q 349 456 411 456 q 235 449 288 456 l 197 314 q 161 85 161 185 q 171 -1 161 47 q 8 -21 75 -1 l -1 -10 l 292 818 q 339 838 313 831 l 340 847 q 110 797 167 840 q 93 727 93 764 q 107 675 93 690 l 106 665 q 36 607 71 644 q 9 621 19 608 q -1 650 -1 633 q 66 805 -1 726 q 214 915 133 883 q 549 904 301 904 q 913 921 797 904 l 921 906 q 856 690 861 849 l 839 690 q 813 824 818 757 q 663 853 749 853 q 583 846 622 853 q 553 519 563 724 q 660 511 588 511 q 803 535 732 511 l 810 526 q 789 440 794 485 q 629 454 692 454 q 549 450 567 454 l 547 379 q 567 154 547 196 q 636 78 596 92 q 701 69 664 69 q 772 151 742 94 q 801 254 801 207 m 463 663 q 465 767 465 715 q 458 850 465 819 q 419 854 442 854 q 376 850 397 854 q 321 715 358 824 q 257 517 283 606 q 356 507 296 507 q 456 517 415 507 l 463 663 z "},"Ç":{"ha":586,"x_min":46,"x_max":600,"o":"m 46 251 q 119 -40 46 79 q 324 -160 192 -160 q 491 -15 421 -114 q 589 199 561 83 q 482 183 547 186 l 475 176 q 479 143 479 158 q 452 22 479 82 q 379 -69 425 -39 q 160 313 160 -69 q 301 832 160 596 q 443 803 376 832 l 478 788 q 504 654 483 721 l 521 654 q 600 896 521 821 l 592 911 q 489 904 565 904 q 350 925 413 904 q 117 637 189 803 q 46 251 46 471 m 428 -290 q 426 -310 428 -300 q 286 -424 371 -396 q 169 -394 225 -424 q 197 -340 189 -361 l 203 -337 q 293 -372 243 -372 q 329 -365 318 -372 q 347 -312 347 -344 q 319 -270 347 -281 q 240 -260 290 -260 l 232 -254 l 317 -106 l 357 -103 l 310 -189 l 314 -193 q 399 -222 371 -193 q 428 -290 428 -250 z "},"È":{"ha":617,"x_min":72,"x_max":756,"o":"m 397 -100 q 163 -23 254 -100 q 72 183 72 54 q 138 389 72 311 q 318 490 203 467 q 381 483 349 490 l 382 493 q 249 577 306 519 q 193 703 193 635 q 488 925 292 869 q 671 893 597 925 q 604 778 633 847 l 594 778 q 451 831 524 831 q 326 796 379 831 q 311 728 311 769 q 358 578 311 632 q 500 506 404 525 l 492 465 q 188 215 188 465 q 247 46 188 107 q 403 -15 306 -15 q 549 14 500 -15 q 615 117 590 53 q 640 240 640 181 q 528 363 640 363 q 461 346 489 363 q 444 276 444 313 q 458 224 444 239 l 457 214 q 388 156 422 193 q 360 169 371 157 q 350 199 350 182 q 427 367 350 300 q 611 450 504 433 q 717 384 679 432 q 756 264 756 336 q 642 38 756 146 q 397 -100 528 -69 m 464 1018 l 189 1122 q 197 1160 189 1135 q 214 1197 206 1186 q 268 1204 235 1204 q 359 1116 299 1161 q 476 1043 419 1071 l 464 1018 z "},"É":{"ha":617,"x_min":72,"x_max":756,"o":"m 397 -100 q 163 -23 254 -100 q 72 183 72 54 q 138 389 72 311 q 318 490 203 467 q 381 483 349 490 l 382 493 q 249 577 306 519 q 193 703 193 635 q 488 925 292 869 q 671 893 597 925 q 604 778 633 847 l 594 778 q 451 831 524 831 q 326 796 379 831 q 311 728 311 769 q 358 578 311 632 q 500 506 404 525 l 492 465 q 188 215 188 465 q 247 46 188 107 q 403 -15 306 -15 q 549 14 500 -15 q 615 117 590 53 q 640 240 640 181 q 528 363 640 363 q 461 346 489 363 q 444 276 444 313 q 458 224 444 239 l 457 214 q 388 156 422 193 q 360 169 371 157 q 350 199 350 182 q 427 367 350 300 q 611 450 504 433 q 717 384 679 432 q 756 264 756 336 q 642 38 756 146 q 397 -100 528 -69 m 640 1122 l 365 1018 l 353 1043 q 470 1116 410 1071 q 561 1204 531 1161 q 615 1197 594 1204 q 632 1160 624 1186 q 640 1122 640 1135 z "},"Ê":{"ha":617,"x_min":72,"x_max":756,"o":"m 397 -100 q 163 -23 254 -100 q 72 183 72 54 q 138 389 72 311 q 318 490 203 467 q 381 483 349 490 l 382 493 q 249 577 306 519 q 193 703 193 635 q 488 925 292 869 q 671 893 597 925 q 604 778 633 847 l 594 778 q 451 831 524 831 q 326 796 379 831 q 311 728 311 769 q 358 578 311 632 q 500 506 404 525 l 492 465 q 188 215 188 465 q 247 46 188 107 q 403 -15 306 -15 q 549 14 500 -15 q 615 117 590 53 q 640 240 640 181 q 528 363 640 363 q 461 346 489 363 q 444 276 444 313 q 458 224 444 239 l 457 214 q 388 156 422 193 q 360 169 371 157 q 350 199 350 182 q 427 367 350 300 q 611 450 504 433 q 717 384 679 432 q 756 264 756 336 q 642 38 756 146 q 397 -100 528 -69 m 418 1107 l 247 997 l 232 1019 q 429 1229 365 1119 l 460 1229 q 613 1017 506 1106 l 592 1000 l 418 1107 z "},"Ë":{"ha":617,"x_min":72,"x_max":756,"o":"m 397 -100 q 163 -23 254 -100 q 72 183 72 54 q 138 389 72 311 q 318 490 203 467 q 381 483 349 490 l 382 493 q 249 577 306 519 q 193 703 193 635 q 488 925 292 869 q 671 893 597 925 q 604 778 633 847 l 594 778 q 451 831 524 831 q 326 796 379 831 q 311 728 311 769 q 358 578 311 632 q 500 506 404 525 l 492 465 q 188 215 188 465 q 247 46 188 107 q 403 -15 306 -15 q 549 14 500 -15 q 615 117 590 53 q 640 240 640 181 q 528 363 640 363 q 461 346 489 363 q 444 276 444 313 q 458 224 444 239 l 457 214 q 388 156 422 193 q 360 169 371 157 q 350 199 350 182 q 427 367 350 300 q 611 450 504 433 q 717 384 679 432 q 756 264 756 336 q 642 38 756 146 q 397 -100 528 -69 m 613 1115 q 574 1064 600 1094 q 529 1021 549 1033 q 463 1115 496 1044 q 499 1157 472 1133 q 544 1192 525 1181 q 613 1115 579 1169 m 383 1115 q 345 1064 371 1094 q 300 1021 319 1033 q 233 1115 267 1044 q 269 1157 243 1133 q 315 1192 296 1181 q 383 1115 350 1169 z "},"Ì":{"ha":406,"x_min":-103,"x_max":299,"o":"m 240 267 q 256 0 240 71 q 114 -21 178 -4 l 106 -14 q 140 264 125 68 q 154 596 154 460 q 149 817 154 732 q 210 838 178 832 l 211 847 q 8 797 67 842 q -8 727 -8 764 q 6 675 -8 690 l 4 665 q -65 607 -31 644 q -92 621 -82 608 q -103 650 -103 633 q -35 805 -103 726 q 113 915 32 883 q 222 904 175 904 q 285 908 269 904 l 293 901 q 240 267 240 654 m 286 1018 l 11 1122 q 19 1160 11 1135 q 36 1197 28 1186 q 90 1204 57 1204 q 181 1116 121 1161 q 299 1043 242 1071 l 286 1018 z "},"Í":{"ha":406,"x_min":-103,"x_max":385,"o":"m 240 267 q 256 0 240 71 q 114 -21 178 -4 l 106 -14 q 140 264 125 68 q 154 596 154 460 q 149 817 154 732 q 210 838 178 832 l 211 847 q 8 797 67 842 q -8 727 -8 764 q 6 675 -8 690 l 4 665 q -65 607 -31 644 q -92 621 -82 608 q -103 650 -103 633 q -35 805 -103 726 q 113 915 32 883 q 222 904 175 904 q 285 908 269 904 l 293 901 q 240 267 240 654 m 385 1122 l 110 1018 l 97 1043 q 215 1116 154 1071 q 306 1204 275 1161 q 360 1197 339 1204 q 376 1160 368 1186 q 385 1122 385 1135 z "},"Î":{"ha":406,"x_min":-103,"x_max":371,"o":"m 240 267 q 256 0 240 71 q 114 -21 178 -4 l 106 -14 q 140 264 125 68 q 154 596 154 460 q 149 817 154 732 q 210 838 178 832 l 211 847 q 8 797 67 842 q -8 727 -8 764 q 6 675 -8 690 l 4 665 q -65 607 -31 644 q -92 621 -82 608 q -103 650 -103 633 q -35 805 -103 726 q 113 915 32 883 q 222 904 175 904 q 285 908 269 904 l 293 901 q 240 267 240 654 m 176 1107 l 6 997 l -10 1019 q 188 1229 124 1119 l 218 1229 q 371 1017 264 1106 l 350 1000 l 176 1107 z "},"Ï":{"ha":406,"x_min":-103,"x_max":381,"o":"m 381 1115 q 342 1064 368 1094 q 297 1021 317 1033 q 231 1115 264 1044 q 267 1157 240 1133 q 313 1192 293 1181 q 381 1115 347 1169 m 151 1115 q 113 1064 139 1094 q 68 1021 88 1033 q 1 1115 35 1044 q 38 1157 11 1133 q 83 1192 64 1181 q 151 1115 118 1169 m 240 267 q 256 0 240 71 q 114 -21 178 -4 l 106 -14 q 140 264 125 68 q 154 596 154 460 q 149 817 154 732 q 210 838 178 832 l 211 847 q 8 797 67 842 q -8 727 -8 764 q 6 675 -8 690 l 4 665 q -65 607 -31 644 q -92 621 -82 608 q -103 650 -103 633 q -35 805 -103 726 q 113 915 32 883 q 222 904 175 904 q 285 908 269 904 l 293 901 q 240 267 240 654 z "},"Ð":{"ha":735,"x_min":8,"x_max":682,"o":"m 386 919 q 615 820 547 919 q 682 522 682 721 q 594 176 682 322 q 319 -21 507 29 l 285 -10 q 167 15 206 15 q 100 10 128 15 l 92 28 q 129 138 119 57 q 150 450 143 271 q 13 438 72 446 l 8 443 q 47 488 35 469 l 151 490 q 154 690 154 593 q 143 861 154 786 q 10 888 63 868 l 11 904 q 219 912 94 904 q 386 919 344 919 m 357 72 q 493 118 443 72 q 551 281 531 183 q 572 464 572 378 q 368 868 572 868 q 278 853 321 868 q 246 494 258 732 l 303 497 q 419 504 390 501 l 424 499 q 403 454 410 478 l 244 451 q 240 263 240 351 q 246 97 240 175 q 357 72 306 72 z "},"Ñ":{"ha":850,"x_min":-103,"x_max":733,"o":"m 733 918 q 699 648 714 833 q 683 292 683 463 q 704 0 683 122 q 600 -18 643 -6 l 590 -14 q 300 583 544 131 q 222 715 263 654 l 217 713 q 229 257 217 464 q 253 0 242 50 q 115 -21 181 -4 l 107 -14 q 140 262 126 68 q 154 603 154 456 q 146 817 154 750 q 193 838 169 831 l 194 847 q 88 835 129 844 q 8 797 47 826 q -8 727 -8 764 q 6 675 -8 690 l 4 665 q -65 607 -31 644 q -92 621 -82 608 q -103 650 -103 633 q -35 805 -103 726 q 113 915 32 883 q 217 904 175 904 q 281 915 260 904 l 289 908 q 288 888 288 901 q 294 851 288 875 q 558 318 347 692 l 619 207 l 624 208 q 611 654 624 456 q 588 904 599 853 q 725 925 663 908 l 733 918 m 438 1174 q 569 1128 508 1128 q 663 1161 631 1128 l 685 1144 q 551 1038 632 1071 q 463 1060 528 1038 q 374 1083 397 1083 q 296 1050 328 1083 l 272 1067 q 438 1174 325 1139 z "},"Ò":{"ha":714,"x_min":53,"x_max":661,"o":"m 661 574 q 572 215 661 385 q 324 -21 482 44 q 122 80 192 -21 q 53 331 53 181 q 110 624 53 482 l 126 619 q 118 553 118 589 q 167 378 118 443 l 167 354 q 242 119 167 199 q 340 75 285 75 q 433 99 396 75 q 517 307 486 174 q 547 550 547 440 q 368 828 547 828 q 278 806 315 828 q 211 703 236 767 q 186 579 186 639 q 299 457 186 457 q 365 474 339 457 q 382 544 382 507 q 368 596 382 581 l 369 606 q 439 664 404 626 q 466 650 456 663 q 476 621 476 638 q 411 465 476 529 q 244 369 346 400 q 135 553 135 397 q 209 766 135 664 q 392 925 283 868 q 661 574 661 925 m 453 1018 l 178 1122 q 186 1160 178 1135 q 203 1197 194 1186 q 257 1204 224 1204 q 348 1116 288 1161 q 465 1043 408 1071 l 453 1018 z "},"Ó":{"ha":714,"x_min":53,"x_max":661,"o":"m 661 574 q 572 215 661 385 q 324 -21 482 44 q 122 80 192 -21 q 53 331 53 181 q 110 624 53 482 l 126 619 q 118 553 118 589 q 167 378 118 443 l 167 354 q 242 119 167 199 q 340 75 285 75 q 433 99 396 75 q 517 307 486 174 q 547 550 547 440 q 368 828 547 828 q 278 806 315 828 q 211 703 236 767 q 186 579 186 639 q 299 457 186 457 q 365 474 339 457 q 382 544 382 507 q 368 596 382 581 l 369 606 q 439 664 404 626 q 466 650 456 663 q 476 621 476 638 q 411 465 476 529 q 244 369 346 400 q 135 553 135 397 q 209 766 135 664 q 392 925 283 868 q 661 574 661 925 m 631 1122 l 356 1018 l 343 1043 q 460 1116 400 1071 q 551 1204 521 1161 q 606 1197 585 1204 q 622 1160 614 1186 q 631 1122 631 1135 z "},"Ô":{"ha":714,"x_min":53,"x_max":661,"o":"m 661 574 q 572 215 661 385 q 324 -21 482 44 q 122 80 192 -21 q 53 331 53 181 q 110 624 53 482 l 126 619 q 118 553 118 589 q 167 378 118 443 l 167 354 q 242 119 167 199 q 340 75 285 75 q 433 99 396 75 q 517 307 486 174 q 547 550 547 440 q 368 828 547 828 q 278 806 315 828 q 211 703 236 767 q 186 579 186 639 q 299 457 186 457 q 365 474 339 457 q 382 544 382 507 q 368 596 382 581 l 369 606 q 439 664 404 626 q 466 650 456 663 q 476 621 476 638 q 411 465 476 529 q 244 369 346 400 q 135 553 135 397 q 209 766 135 664 q 392 925 283 868 q 661 574 661 925 m 404 1107 l 233 997 l 218 1019 q 415 1229 351 1119 l 446 1229 q 599 1017 492 1106 l 578 1000 l 404 1107 z "},"Õ":{"ha":714,"x_min":53,"x_max":661,"o":"m 661 574 q 572 215 661 385 q 324 -21 482 44 q 122 80 192 -21 q 53 331 53 181 q 110 624 53 482 l 126 619 q 118 553 118 589 q 167 378 118 443 l 167 354 q 242 119 167 199 q 340 75 285 75 q 433 99 396 75 q 517 307 486 174 q 547 550 547 440 q 368 828 547 828 q 278 806 315 828 q 211 703 236 767 q 186 579 186 639 q 299 457 186 457 q 365 474 339 457 q 382 544 382 507 q 368 596 382 581 l 369 606 q 439 664 404 626 q 466 650 456 663 q 476 621 476 638 q 411 465 476 529 q 244 369 346 400 q 135 553 135 397 q 209 766 135 664 q 392 925 283 868 q 661 574 661 925 m 397 1174 q 529 1128 468 1128 q 622 1161 590 1128 l 644 1144 q 511 1038 592 1071 q 422 1060 486 1038 q 333 1083 358 1083 q 256 1050 286 1083 l 232 1067 q 397 1174 285 1139 z "},"Ö":{"ha":714,"x_min":53,"x_max":661,"o":"m 661 574 q 572 215 661 385 q 324 -21 482 44 q 122 80 192 -21 q 53 331 53 181 q 110 624 53 482 l 126 619 q 118 553 118 589 q 167 378 118 443 l 167 354 q 242 119 167 199 q 340 75 285 75 q 433 99 396 75 q 517 307 486 174 q 547 550 547 440 q 368 828 547 828 q 278 806 315 828 q 211 703 236 767 q 186 579 186 639 q 299 457 186 457 q 365 474 339 457 q 382 544 382 507 q 368 596 382 581 l 369 606 q 439 664 404 626 q 466 650 456 663 q 476 621 476 638 q 411 465 476 529 q 244 369 346 400 q 135 553 135 397 q 209 766 135 664 q 392 925 283 868 q 661 574 661 925 m 628 1115 q 590 1064 615 1094 q 544 1021 564 1033 q 478 1115 511 1044 q 514 1157 488 1133 q 560 1192 540 1181 q 628 1115 594 1169 m 399 1115 q 360 1064 386 1094 q 315 1021 335 1033 q 249 1115 282 1044 q 285 1157 258 1133 q 331 1192 311 1181 q 399 1115 365 1169 z "},"×":{"ha":764,"x_min":113,"x_max":660,"o":"m 593 590 l 646 542 l 432 332 q 563 208 483 279 q 660 124 643 138 l 621 69 l 606 69 l 386 285 l 167 69 l 151 69 l 113 124 q 339 332 293 285 l 126 542 l 179 590 l 190 589 q 386 379 250 522 l 582 589 l 593 590 z "},"Ø":{"ha":714,"x_min":53,"x_max":661,"o":"m 53 331 q 206 783 53 597 q 392 925 283 881 q 490 910 444 925 l 525 1017 q 578 1026 557 1019 l 583 1022 q 531 892 579 1013 q 661 574 661 818 q 572 215 661 385 q 324 -21 482 44 q 194 13 253 -21 l 146 -121 l 139 -121 q 103 -87 117 -108 l 158 39 q 53 331 53 135 m 547 550 q 486 776 547 708 l 236 124 q 338 75 281 75 q 433 99 396 75 q 517 307 486 174 q 547 550 547 440 m 278 806 q 196 590 225 711 q 167 355 167 468 q 208 164 167 242 l 454 804 q 367 828 418 828 q 278 806 315 828 z "},"Ù":{"ha":825,"x_min":-114,"x_max":703,"o":"m 128 285 q 143 635 128 285 q 138 817 143 732 q 199 838 167 832 l 200 847 q -3 797 56 842 q -19 727 -19 764 q -6 675 -19 690 l -7 665 q -76 607 -42 644 q -103 621 -93 608 q -114 650 -114 633 q -47 805 -114 726 q 101 915 21 883 q 211 904 164 904 q 274 908 258 904 l 282 901 q 233 376 233 628 q 247 198 233 231 q 274 140 260 165 q 367 82 300 93 q 556 289 471 151 q 568 651 568 472 q 553 901 568 831 q 694 922 631 906 l 703 915 q 667 621 681 815 q 654 249 654 426 q 669 0 654 71 q 528 -21 592 -4 l 519 -14 q 549 203 535 58 l 544 204 q 332 -21 457 50 q 172 69 217 -10 q 128 285 128 147 m 447 1018 l 172 1122 q 181 1160 172 1135 q 197 1197 189 1186 q 251 1204 218 1204 q 342 1116 282 1161 q 460 1043 403 1071 l 447 1018 z "},"Ú":{"ha":825,"x_min":-114,"x_max":703,"o":"m 128 285 q 143 635 128 285 q 138 817 143 732 q 199 838 167 832 l 200 847 q -3 797 56 842 q -19 727 -19 764 q -6 675 -19 690 l -7 665 q -76 607 -42 644 q -103 621 -93 608 q -114 650 -114 633 q -47 805 -114 726 q 101 915 21 883 q 211 904 164 904 q 274 908 258 904 l 282 901 q 233 376 233 628 q 247 198 233 231 q 274 140 260 165 q 367 82 300 93 q 556 289 471 151 q 568 651 568 472 q 553 901 568 831 q 694 922 631 906 l 703 915 q 667 621 681 815 q 654 249 654 426 q 669 0 654 71 q 528 -21 592 -4 l 519 -14 q 549 203 535 58 l 544 204 q 332 -21 457 50 q 172 69 217 -10 q 128 285 128 147 m 682 1122 l 407 1018 l 394 1043 q 512 1116 451 1071 q 603 1204 572 1161 q 657 1197 636 1204 q 674 1160 665 1186 q 682 1122 682 1135 z "},"Û":{"ha":825,"x_min":-114,"x_max":703,"o":"m 128 285 q 143 635 128 285 q 138 817 143 732 q 199 838 167 832 l 200 847 q -3 797 56 842 q -19 727 -19 764 q -6 675 -19 690 l -7 665 q -76 607 -42 644 q -103 621 -93 608 q -114 650 -114 633 q -47 805 -114 726 q 101 915 21 883 q 211 904 164 904 q 274 908 258 904 l 282 901 q 233 376 233 628 q 247 198 233 231 q 274 140 260 165 q 367 82 300 93 q 556 289 471 151 q 568 651 568 472 q 553 901 568 831 q 694 922 631 906 l 703 915 q 667 621 681 815 q 654 249 654 426 q 669 0 654 71 q 528 -21 592 -4 l 519 -14 q 549 203 535 58 l 544 204 q 332 -21 457 50 q 172 69 217 -10 q 128 285 128 147 m 417 1107 l 246 997 l 231 1019 q 428 1229 364 1119 l 458 1229 q 611 1017 504 1106 l 590 1000 l 417 1107 z "},"Ü":{"ha":825,"x_min":-108,"x_max":708,"o":"m 133 285 q 149 635 133 285 q 143 817 149 732 q 204 838 172 832 l 206 847 q 3 797 61 842 q -14 727 -14 764 q 0 675 -14 690 l -1 665 q -71 607 -36 644 q -98 621 -87 608 q -108 650 -108 633 q -41 805 -108 726 q 107 915 26 883 q 217 904 169 904 q 279 908 264 904 l 288 901 q 239 376 239 628 q 252 198 239 231 q 279 140 265 165 q 372 82 306 93 q 561 289 476 151 q 574 651 574 472 q 558 901 574 831 q 700 922 636 906 l 708 915 q 673 621 686 815 q 660 249 660 426 q 675 0 660 71 q 533 -21 597 -4 l 525 -14 q 554 203 540 58 l 550 204 q 338 -21 463 50 q 178 69 222 -10 q 133 285 133 147 m 625 1115 q 587 1064 613 1094 q 542 1021 561 1033 q 475 1115 508 1044 q 511 1157 485 1133 q 557 1192 538 1181 q 625 1115 592 1169 m 396 1115 q 358 1064 383 1094 q 313 1021 332 1033 q 246 1115 279 1044 q 282 1157 256 1133 q 328 1192 308 1181 q 396 1115 363 1169 z "},"Ý":{"ha":679,"x_min":-250,"x_max":678,"o":"m 538 853 q 528 900 538 879 l 533 907 q 678 926 618 910 q 614 759 664 854 q 528 614 564 664 q 396 436 440 490 q 393 222 393 374 q 408 0 393 71 q 267 -21 331 -4 l 258 -14 q 301 408 288 111 q 231 568 260 506 q 154 746 201 631 q -44 1011 76 936 q -69 1013 -50 1013 q -119 1001 -89 1013 q -161 972 -149 990 l -169 969 q -249 1015 -206 997 q -250 1029 -250 1021 q -167 1074 -250 1074 q 33 1031 -85 1074 q 239 925 150 989 q 379 489 279 721 l 449 604 q 538 853 538 756 m 656 1122 l 381 1018 l 368 1043 q 485 1116 425 1071 q 576 1204 546 1161 q 631 1197 610 1204 q 647 1160 639 1186 q 656 1122 656 1135 z "},"Þ":{"ha":632,"x_min":10,"x_max":613,"o":"m 378 724 q 553 677 493 724 q 613 510 613 631 q 520 314 613 390 q 290 238 428 238 l 294 279 q 496 476 496 279 q 354 672 496 672 q 256 657 304 672 q 240 272 240 472 q 256 0 240 71 q 114 -21 178 -4 l 106 -14 q 140 264 125 68 q 154 623 154 460 q 143 861 154 786 q 10 888 63 868 l 11 904 q 281 922 178 904 l 289 915 q 261 719 272 842 q 378 724 322 724 z "},"ß":{"ha":1074,"x_min":35,"x_max":1028,"o":"m 247 656 q 199 625 224 647 q 175 580 175 603 q 205 529 175 557 q 277 478 235 501 q 363 432 319 456 q 435 378 406 408 q 465 318 465 349 q 398 135 465 235 q 251 -21 331 35 q 65 106 142 3 l 35 146 q 142 271 103 210 l 164 258 q 149 193 149 228 q 190 120 149 158 q 282 65 232 82 q 343 149 308 83 q 378 247 378 215 q 333 315 378 279 q 235 376 289 350 q 138 440 182 403 q 93 515 93 478 q 154 644 93 581 q 289 739 215 708 q 405 724 336 724 q 494 729 474 724 l 501 717 q 440 521 440 657 l 419 521 q 401 619 408 557 l 382 628 q 247 656 322 653 m 774 656 q 726 625 750 647 q 701 580 701 603 q 731 529 701 557 q 804 478 761 501 q 890 432 847 456 q 962 378 932 408 q 992 318 992 349 q 924 135 992 235 q 778 -21 857 35 q 592 106 668 3 l 561 146 q 668 271 629 210 l 690 258 q 675 193 675 228 q 717 120 675 158 q 808 65 758 82 q 869 149 835 83 q 904 247 904 215 q 860 315 904 279 q 762 376 815 350 q 664 440 708 403 q 619 515 619 478 q 681 644 619 581 q 815 739 742 708 q 931 724 863 724 q 1021 729 1000 724 l 1028 717 q 967 521 967 657 l 946 521 q 928 619 935 557 l 908 628 q 774 656 849 653 z "},"à":{"ha":653,"x_min":19,"x_max":547,"o":"m 417 239 q 330 247 364 247 q 261 247 296 247 q 190 239 226 247 q 164 83 164 135 q 171 -6 164 32 q 26 -21 81 -6 l 19 -12 l 264 681 q 174 710 211 694 l 179 733 q 369 724 242 724 q 540 732 497 724 l 547 726 q 521 508 532 661 q 510 208 510 354 q 521 -4 510 63 q 393 -21 431 -11 l 388 -15 q 417 239 408 81 m 208 306 q 310 297 239 297 q 421 307 382 297 q 426 526 426 451 q 419 671 426 601 q 381 675 407 675 q 339 671 356 675 q 290 558 317 639 l 208 306 m 260 994 q 285 997 271 997 q 313 996 299 997 q 506 807 364 903 l 492 783 l 228 921 q 240 959 229 933 q 260 994 250 985 z "},"á":{"ha":653,"x_min":19,"x_max":575,"o":"m 417 239 q 330 247 364 247 q 261 247 296 247 q 190 239 226 247 q 164 83 164 135 q 171 -6 164 32 q 26 -21 81 -6 l 19 -12 l 264 681 q 174 710 211 694 l 179 733 q 369 724 242 724 q 540 732 497 724 l 547 726 q 521 508 532 661 q 510 208 510 354 q 521 -4 510 63 q 393 -21 431 -11 l 388 -15 q 417 239 408 81 m 208 306 q 310 297 239 297 q 421 307 382 297 q 426 526 426 451 q 419 671 426 601 q 381 675 407 675 q 339 671 356 675 q 290 558 317 639 l 208 306 m 490 996 q 518 997 504 997 q 543 994 532 997 q 563 959 553 985 q 575 921 574 933 l 311 783 l 297 807 q 490 996 439 903 z "},"â":{"ha":653,"x_min":19,"x_max":576,"o":"m 417 239 q 330 247 364 247 q 261 247 296 247 q 190 239 226 247 q 164 83 164 135 q 171 -6 164 32 q 26 -21 81 -6 l 19 -12 l 264 681 q 174 710 211 694 l 179 733 q 369 724 242 724 q 540 732 497 724 l 547 726 q 521 508 532 661 q 510 208 510 354 q 521 -4 510 63 q 393 -21 431 -11 l 388 -15 q 417 239 408 81 m 208 306 q 310 297 239 297 q 421 307 382 297 q 426 526 426 451 q 419 671 426 601 q 381 675 407 675 q 339 671 356 675 q 290 558 317 639 l 208 306 m 401 886 l 250 776 l 235 799 q 413 1008 356 900 l 443 1008 q 498 888 469 935 q 576 796 526 842 l 556 779 l 401 886 z "},"ã":{"ha":653,"x_min":19,"x_max":608,"o":"m 417 239 q 330 247 364 247 q 261 247 296 247 q 190 239 226 247 q 164 83 164 135 q 171 -6 164 32 q 26 -21 81 -6 l 19 -12 l 264 681 q 174 710 211 694 l 179 733 q 369 724 242 724 q 540 732 497 724 l 547 726 q 521 508 532 661 q 510 208 510 354 q 521 -4 510 63 q 393 -21 431 -11 l 388 -15 q 417 239 408 81 m 208 306 q 310 297 239 297 q 421 307 382 297 q 426 526 426 451 q 419 671 426 601 q 381 675 407 675 q 339 671 356 675 q 290 558 317 639 l 208 306 m 361 956 q 493 910 432 910 q 586 943 554 910 l 608 926 q 475 819 556 853 q 386 842 450 819 q 297 865 322 865 q 219 832 250 865 l 196 849 q 361 956 249 921 z "},"ä":{"ha":653,"x_min":19,"x_max":592,"o":"m 417 239 q 330 247 364 247 q 261 247 296 247 q 190 239 226 247 q 164 83 164 135 q 171 -6 164 32 q 26 -21 81 -6 l 19 -12 l 264 681 q 174 710 211 694 l 179 733 q 369 724 242 724 q 540 732 497 724 l 547 726 q 521 508 532 661 q 510 208 510 354 q 521 -4 510 63 q 393 -21 431 -11 l 388 -15 q 417 239 408 81 m 208 306 q 310 297 239 297 q 421 307 382 297 q 426 526 426 451 q 419 671 426 601 q 381 675 407 675 q 339 671 356 675 q 290 558 317 639 l 208 306 m 592 890 q 553 839 579 869 q 508 796 528 808 q 442 890 475 819 q 478 932 451 908 q 524 967 504 956 q 592 890 558 944 m 363 890 q 324 839 350 869 q 279 796 299 808 q 213 890 246 819 q 249 932 222 908 q 294 967 275 956 q 363 890 329 944 z "},"å":{"ha":653,"x_min":19,"x_max":547,"o":"m 417 239 q 330 247 364 247 q 261 247 296 247 q 190 239 226 247 q 164 83 164 135 q 171 -6 164 32 q 26 -21 81 -6 l 19 -12 l 264 681 q 174 710 211 694 l 179 733 q 369 724 242 724 q 540 732 497 724 l 547 726 q 521 508 532 661 q 510 208 510 354 q 521 -4 510 63 q 393 -21 431 -11 l 388 -15 q 417 239 408 81 m 208 306 q 310 297 239 297 q 421 307 382 297 q 426 526 426 451 q 419 671 426 601 q 381 675 407 675 q 339 671 356 675 q 290 558 317 639 l 208 306 m 471 885 q 471 905 471 885 q 451 942 471 924 q 403 961 432 961 q 357 949 374 961 q 333 875 333 921 q 404 807 333 807 q 447 819 433 807 q 471 885 471 847 m 388 758 q 299 781 335 758 q 264 855 264 804 q 310 948 264 906 q 425 1010 357 990 q 540 925 540 1010 q 497 821 540 864 q 388 758 453 778 z "},"æ":{"ha":825,"x_min":19,"x_max":792,"o":"m 388 164 q 394 349 388 197 q 306 356 363 356 q 222 349 250 356 l 208 306 l 190 239 q 164 83 164 135 q 171 -6 164 32 q 26 -21 81 -6 l 19 -12 l 264 681 q 174 710 211 694 l 179 733 q 506 724 289 724 q 785 738 724 724 l 792 725 q 738 551 743 678 l 717 551 q 697 651 704 596 q 599 675 646 675 q 510 669 551 675 q 488 417 494 583 q 579 408 524 408 q 697 429 635 408 l 703 422 q 685 340 694 401 q 563 354 619 354 q 485 350 506 354 q 483 214 482 297 q 507 92 483 131 q 591 53 531 53 q 690 76 651 53 q 700 127 700 96 q 688 171 700 158 l 689 178 q 751 228 728 199 q 789 190 789 225 q 726 58 789 114 q 574 -21 663 3 q 433 28 479 -21 q 388 164 388 76 m 397 413 q 399 528 399 444 q 390 671 399 611 q 365 675 378 675 q 339 671 353 675 q 290 558 317 639 l 243 411 q 316 406 261 406 q 397 413 371 406 z "},"ç":{"ha":560,"x_min":56,"x_max":526,"o":"m 56 257 q 122 533 56 407 q 311 740 188 660 q 431 724 363 724 q 519 729 499 724 l 526 717 q 465 521 465 657 l 444 521 q 426 619 433 557 l 399 632 q 278 660 338 660 q 267 660 272 660 q 191 490 218 586 q 164 290 164 394 q 202 122 164 186 q 338 57 240 57 q 394 130 374 83 q 415 222 415 176 q 413 250 415 228 l 418 256 q 515 271 478 258 q 431 99 493 181 q 290 -21 369 17 q 119 60 182 -21 q 56 257 56 140 m 399 -165 q 397 -185 399 -175 q 257 -299 342 -271 q 140 -269 196 -299 q 168 -215 160 -236 l 174 -212 q 264 -247 214 -247 q 300 -240 289 -247 q 318 -187 318 -219 q 290 -145 318 -156 q 211 -135 261 -135 l 203 -129 l 288 19 l 328 22 l 281 -64 l 285 -68 q 370 -97 342 -68 q 399 -165 399 -125 z "},"è":{"ha":536,"x_min":42,"x_max":497,"o":"m 432 617 q 313 663 371 663 q 210 635 254 663 q 200 585 200 615 q 399 410 200 429 l 392 367 q 153 199 153 367 q 190 91 153 129 q 288 53 226 53 q 389 76 350 53 q 399 127 399 96 q 386 171 399 158 l 388 178 q 450 228 426 199 q 488 190 488 225 q 424 58 488 114 q 272 -21 361 3 q 110 35 178 -21 q 42 179 42 90 q 111 324 42 268 q 282 389 181 379 l 282 393 q 144 449 201 404 q 88 564 88 494 q 201 676 126 628 q 357 744 276 725 q 497 715 438 744 q 440 617 463 676 l 432 617 m 192 994 q 217 997 203 997 q 244 996 231 997 q 438 807 296 903 l 424 783 l 160 921 q 172 959 161 933 q 192 994 182 985 z "},"é":{"ha":536,"x_min":42,"x_max":507,"o":"m 432 617 q 313 663 371 663 q 210 635 254 663 q 200 585 200 615 q 399 410 200 429 l 392 367 q 153 199 153 367 q 190 91 153 129 q 288 53 226 53 q 389 76 350 53 q 399 127 399 96 q 386 171 399 158 l 388 178 q 450 228 426 199 q 488 190 488 225 q 424 58 488 114 q 272 -21 361 3 q 110 35 178 -21 q 42 179 42 90 q 111 324 42 268 q 282 389 181 379 l 282 393 q 144 449 201 404 q 88 564 88 494 q 201 676 126 628 q 357 744 276 725 q 497 715 438 744 q 440 617 463 676 l 432 617 m 422 996 q 450 997 436 997 q 475 994 464 997 q 495 959 485 985 q 507 921 506 933 l 243 783 l 229 807 q 422 996 371 903 z "},"ê":{"ha":536,"x_min":42,"x_max":508,"o":"m 432 617 q 313 663 371 663 q 210 635 254 663 q 200 585 200 615 q 399 410 200 429 l 392 367 q 153 199 153 367 q 190 91 153 129 q 288 53 226 53 q 389 76 350 53 q 399 127 399 96 q 386 171 399 158 l 388 178 q 450 228 426 199 q 488 190 488 225 q 424 58 488 114 q 272 -21 361 3 q 110 35 178 -21 q 42 179 42 90 q 111 324 42 268 q 282 389 181 379 l 282 393 q 144 449 201 404 q 88 564 88 494 q 201 676 126 628 q 357 744 276 725 q 497 715 438 744 q 440 617 463 676 l 432 617 m 333 886 l 182 776 l 167 799 q 344 1008 288 900 l 375 1008 q 430 888 401 935 q 508 796 458 842 l 488 779 l 333 886 z "},"ë":{"ha":536,"x_min":42,"x_max":524,"o":"m 432 617 q 313 663 371 663 q 210 635 254 663 q 200 585 200 615 q 399 410 200 429 l 392 367 q 153 199 153 367 q 190 91 153 129 q 288 53 226 53 q 389 76 350 53 q 399 127 399 96 q 386 171 399 158 l 388 178 q 450 228 426 199 q 488 190 488 225 q 424 58 488 114 q 272 -21 361 3 q 110 35 178 -21 q 42 179 42 90 q 111 324 42 268 q 282 389 181 379 l 282 393 q 144 449 201 404 q 88 564 88 494 q 201 676 126 628 q 357 744 276 725 q 497 715 438 744 q 440 617 463 676 l 432 617 m 524 890 q 485 839 511 869 q 440 796 460 808 q 374 890 407 819 q 410 932 383 908 q 456 967 436 956 q 524 890 490 944 m 294 890 q 256 839 282 869 q 211 796 231 808 q 144 890 178 819 q 181 932 154 908 q 226 967 207 956 q 294 890 261 944 z "},"ì":{"ha":378,"x_min":25,"x_max":303,"o":"m 272 732 q 244 494 254 651 q 233 194 233 338 q 246 -4 233 50 q 118 -21 161 -10 l 111 -15 q 138 208 126 51 q 150 490 150 365 q 142 679 150 615 q 46 700 79 686 l 49 724 q 265 738 183 724 l 272 732 m 57 994 q 82 997 68 997 q 110 996 96 997 q 303 807 161 903 l 289 783 l 25 921 q 37 959 26 933 q 57 994 47 985 z "},"í":{"ha":378,"x_min":46,"x_max":372,"o":"m 272 732 q 244 494 254 651 q 233 194 233 338 q 246 -4 233 50 q 118 -21 161 -10 l 111 -15 q 138 208 126 51 q 150 490 150 365 q 142 679 150 615 q 46 700 79 686 l 49 724 q 265 738 183 724 l 272 732 m 288 996 q 315 997 301 997 q 340 994 329 997 q 360 959 350 985 q 372 921 371 933 l 108 783 l 94 807 q 288 996 236 903 z "},"î":{"ha":378,"x_min":13,"x_max":354,"o":"m 272 732 q 244 494 254 651 q 233 194 233 338 q 246 -4 233 50 q 118 -21 161 -10 l 111 -15 q 138 208 126 51 q 150 490 150 365 q 142 679 150 615 q 46 700 79 686 l 49 724 q 265 738 183 724 l 272 732 m 179 886 l 28 776 l 13 799 q 190 1008 133 900 l 221 1008 q 276 888 247 935 q 354 796 304 842 l 333 779 l 179 886 z "},"ï":{"ha":378,"x_min":10,"x_max":389,"o":"m 272 732 q 244 494 254 651 q 233 194 233 338 q 246 -4 233 50 q 118 -21 161 -10 l 111 -15 q 138 208 126 51 q 150 490 150 365 q 142 679 150 615 q 46 700 79 686 l 49 724 q 265 738 183 724 l 272 732 m 389 890 q 351 839 376 869 q 306 796 325 808 q 239 890 272 819 q 275 932 249 908 q 321 967 301 956 q 389 890 356 944 m 160 890 q 122 839 147 869 q 76 796 96 808 q 10 890 43 819 q 46 932 19 908 q 92 967 72 956 q 160 890 126 944 z "},"ð":{"ha":565,"x_min":50,"x_max":619,"o":"m 365 736 q 619 428 619 736 q 542 138 619 258 q 311 -21 464 18 l 283 -12 q 182 8 218 8 q 121 4 146 8 l 114 18 q 144 107 136 43 q 161 360 154 208 q 54 350 79 354 l 50 356 q 60 400 58 383 l 163 404 q 164 528 164 440 q 156 679 164 615 q 60 700 93 686 l 63 724 q 231 730 129 724 q 365 736 332 736 m 342 60 q 454 97 413 60 q 514 369 514 200 q 350 689 514 689 q 276 676 308 689 q 251 408 258 571 l 253 408 q 375 415 350 413 q 388 372 381 388 l 388 365 l 250 363 q 247 229 247 308 q 251 79 247 150 q 342 60 300 60 z "},"ñ":{"ha":739,"x_min":43,"x_max":636,"o":"m 636 735 q 608 517 619 667 q 596 234 596 367 q 613 -4 596 101 q 519 -18 544 -12 l 511 -15 q 338 340 485 74 q 275 456 299 411 q 215 557 251 501 l 211 556 q 221 195 211 354 q 240 -4 231 36 q 119 -21 165 -10 l 113 -15 q 139 207 128 50 q 150 483 150 364 q 139 679 150 601 q 43 700 76 686 l 46 724 q 256 738 172 724 q 310 598 267 689 q 382 453 353 507 q 486 265 411 400 l 535 176 l 538 178 q 528 528 538 376 q 510 724 518 681 q 629 740 586 729 l 636 735 m 346 956 q 478 910 417 910 q 571 943 539 910 l 593 926 q 460 819 540 853 q 371 842 436 819 q 282 865 306 865 q 204 832 236 865 l 181 849 q 346 956 233 921 z "},"ò":{"ha":636,"x_min":56,"x_max":581,"o":"m 472 440 q 326 660 472 660 q 250 642 279 660 q 164 283 164 488 q 200 128 164 194 q 307 63 236 63 q 382 82 353 63 q 449 247 425 142 q 472 440 472 351 m 290 -21 q 119 62 182 -21 q 56 281 56 144 q 135 556 56 417 q 346 744 214 694 q 522 667 464 744 q 581 449 581 589 q 500 169 581 310 q 290 -21 419 29 m 213 994 q 238 997 224 997 q 265 996 251 997 q 458 807 317 903 l 444 783 l 181 921 q 192 959 182 933 q 213 994 203 985 z "},"ó":{"ha":636,"x_min":56,"x_max":581,"o":"m 472 440 q 326 660 472 660 q 250 642 279 660 q 164 283 164 488 q 200 128 164 194 q 307 63 236 63 q 382 82 353 63 q 449 247 425 142 q 472 440 472 351 m 290 -21 q 119 62 182 -21 q 56 281 56 144 q 135 556 56 417 q 346 744 214 694 q 522 667 464 744 q 581 449 581 589 q 500 169 581 310 q 290 -21 419 29 m 443 996 q 471 997 457 997 q 496 994 485 997 q 516 959 506 985 q 528 921 526 933 l 264 783 l 250 807 q 443 996 392 903 z "},"ô":{"ha":636,"x_min":56,"x_max":581,"o":"m 472 440 q 326 660 472 660 q 250 642 279 660 q 164 283 164 488 q 200 128 164 194 q 307 63 236 63 q 382 82 353 63 q 449 247 425 142 q 472 440 472 351 m 290 -21 q 119 62 182 -21 q 56 281 56 144 q 135 556 56 417 q 346 744 214 694 q 522 667 464 744 q 581 449 581 589 q 500 169 581 310 q 290 -21 419 29 m 354 886 l 203 776 l 188 799 q 365 1008 308 900 l 396 1008 q 451 888 422 935 q 529 796 479 842 l 508 779 l 354 886 z "},"õ":{"ha":636,"x_min":56,"x_max":581,"o":"m 472 440 q 326 660 472 660 q 250 642 279 660 q 164 283 164 488 q 200 128 164 194 q 307 63 236 63 q 382 82 353 63 q 449 247 425 142 q 472 440 472 351 m 290 -21 q 119 62 182 -21 q 56 281 56 144 q 135 556 56 417 q 346 744 214 694 q 522 667 464 744 q 581 449 581 589 q 500 169 581 310 q 290 -21 419 29 m 314 956 q 446 910 385 910 q 539 943 507 910 l 561 926 q 428 819 508 853 q 338 842 403 819 q 250 865 274 865 q 172 832 203 865 l 149 849 q 314 956 201 921 z "},"ö":{"ha":636,"x_min":56,"x_max":581,"o":"m 472 440 q 326 660 472 660 q 250 642 279 660 q 164 283 164 488 q 200 128 164 194 q 307 63 236 63 q 382 82 353 63 q 449 247 425 142 q 472 440 472 351 m 290 -21 q 119 62 182 -21 q 56 281 56 144 q 135 556 56 417 q 346 744 214 694 q 522 667 464 744 q 581 449 581 589 q 500 169 581 310 q 290 -21 419 29 m 544 890 q 506 839 532 869 q 461 796 481 808 q 394 890 428 819 q 431 932 404 908 q 476 967 457 956 q 544 890 511 944 m 315 890 q 277 839 303 869 q 232 796 251 808 q 165 890 199 819 q 201 932 175 908 q 247 967 228 956 q 315 890 282 944 z "},"÷":{"ha":764,"x_min":74,"x_max":689,"o":"m 422 578 q 432 568 422 578 q 442 535 442 558 q 422 491 442 511 q 381 471 403 471 q 338 491 358 471 q 318 535 318 511 q 338 578 318 558 q 381 597 358 597 q 422 578 403 597 m 422 199 q 432 189 422 199 q 442 156 442 179 q 422 112 442 132 q 381 92 403 92 q 338 112 358 92 q 318 155 318 132 q 338 198 318 178 q 381 218 358 218 q 422 199 403 218 m 86 389 q 474 376 322 376 q 681 381 626 376 l 689 372 l 676 308 l 85 308 l 74 318 l 86 389 z "},"ø":{"ha":565,"x_min":56,"x_max":581,"o":"m 139 -121 l 132 -121 q 96 -87 110 -108 q 215 199 163 61 l 347 546 q 456 853 403 690 q 508 863 488 856 l 514 858 q 399 564 496 817 l 139 -121 m 472 440 q 326 660 472 660 q 250 642 279 660 q 164 283 164 488 q 200 128 164 194 q 307 63 236 63 q 382 82 353 63 q 449 247 425 142 q 472 440 472 351 m 290 -21 q 119 62 182 -21 q 56 281 56 144 q 135 556 56 417 q 346 744 214 694 q 522 667 464 744 q 581 449 581 589 q 500 169 581 310 q 290 -21 419 29 z "},"ù":{"ha":726,"x_min":44,"x_max":621,"o":"m 131 225 q 143 507 131 225 q 135 679 143 615 q 44 700 81 685 l 46 724 q 263 738 181 724 l 269 732 q 229 299 229 550 q 272 92 229 136 q 331 64 294 71 q 489 233 421 121 q 499 519 499 371 q 486 721 499 667 q 614 738 571 726 l 621 732 q 592 494 603 651 q 582 194 582 338 q 594 -4 582 50 q 467 -21 510 -10 l 460 -15 q 483 153 474 56 l 479 154 q 308 -21 410 31 q 131 225 131 -3 m 235 994 q 260 997 246 997 q 288 996 274 997 q 481 807 339 903 l 467 783 l 203 921 q 215 959 204 933 q 235 994 225 985 z "},"ú":{"ha":726,"x_min":44,"x_max":621,"o":"m 131 225 q 143 507 131 225 q 135 679 143 615 q 44 700 81 685 l 46 724 q 263 738 181 724 l 269 732 q 229 299 229 550 q 272 92 229 136 q 331 64 294 71 q 489 233 421 121 q 499 519 499 371 q 486 721 499 667 q 614 738 571 726 l 621 732 q 592 494 603 651 q 582 194 582 338 q 594 -4 582 50 q 467 -21 510 -10 l 460 -15 q 483 153 474 56 l 479 154 q 308 -21 410 31 q 131 225 131 -3 m 465 996 q 493 997 479 997 q 518 994 507 997 q 538 959 528 985 q 550 921 549 933 l 286 783 l 272 807 q 465 996 414 903 z "},"û":{"ha":726,"x_min":44,"x_max":621,"o":"m 131 225 q 143 507 131 225 q 135 679 143 615 q 44 700 81 685 l 46 724 q 263 738 181 724 l 269 732 q 229 299 229 550 q 272 92 229 136 q 331 64 294 71 q 489 233 421 121 q 499 519 499 371 q 486 721 499 667 q 614 738 571 726 l 621 732 q 592 494 603 651 q 582 194 582 338 q 594 -4 582 50 q 467 -21 510 -10 l 460 -15 q 483 153 474 56 l 479 154 q 308 -21 410 31 q 131 225 131 -3 m 376 886 l 225 776 l 210 799 q 388 1008 331 900 l 418 1008 q 473 888 444 935 q 551 796 501 842 l 531 779 l 376 886 z "},"ü":{"ha":726,"x_min":44,"x_max":621,"o":"m 131 225 q 143 507 131 225 q 135 679 143 615 q 44 700 81 685 l 46 724 q 263 738 181 724 l 269 732 q 229 299 229 550 q 272 92 229 136 q 331 64 294 71 q 489 233 421 121 q 499 519 499 371 q 486 721 499 667 q 614 738 571 726 l 621 732 q 592 494 603 651 q 582 194 582 338 q 594 -4 582 50 q 467 -21 510 -10 l 460 -15 q 483 153 474 56 l 479 154 q 308 -21 410 31 q 131 225 131 -3 m 567 890 q 528 839 554 869 q 483 796 503 808 q 417 890 450 819 q 453 932 426 908 q 499 967 479 956 q 567 890 533 944 m 338 890 q 299 839 325 869 q 254 796 274 808 q 188 890 221 819 q 224 932 197 908 q 269 967 250 956 q 338 890 304 944 z "},"ý":{"ha":514,"x_min":-50,"x_max":543,"o":"m 313 346 q 311 173 311 294 q 322 -4 311 51 q 196 -21 250 -7 l 189 -15 q 224 324 211 76 l 161 463 q 47 679 94 603 q -50 701 -12 686 l -47 724 q 172 738 89 724 q 292 394 204 600 l 349 486 q 418 679 418 604 q 410 718 418 700 l 414 724 q 543 739 485 724 q 485 594 532 678 q 410 474 438 511 q 313 346 382 436 m 390 996 q 418 997 404 997 q 443 994 432 997 q 463 959 453 985 q 475 921 474 933 l 211 783 l 197 807 q 390 996 339 903 z "},"þ":{"ha":607,"x_min":46,"x_max":551,"o":"m 346 593 q 551 428 551 593 q 471 260 551 324 q 276 196 390 196 l 279 239 q 440 394 440 239 q 326 546 440 546 q 247 533 285 546 l 246 533 q 233 208 233 367 q 246 -4 233 50 q 118 -21 161 -10 l 111 -15 q 138 208 126 51 q 150 490 150 365 q 142 679 150 615 q 46 700 79 686 l 49 724 q 265 738 183 724 l 272 732 q 251 589 260 681 q 346 593 301 593 z "},"ÿ":{"ha":514,"x_min":-50,"x_max":543,"o":"m 313 346 q 311 173 311 294 q 322 -4 311 51 q 196 -21 250 -7 l 189 -15 q 224 324 211 76 l 161 463 q 47 679 94 603 q -50 701 -12 686 l -47 724 q 172 738 89 724 q 292 394 204 600 l 349 486 q 418 679 418 604 q 410 718 418 700 l 414 724 q 543 739 485 724 q 485 594 532 678 q 410 474 438 511 q 313 346 382 436 m 492 890 q 453 839 479 869 q 408 796 428 808 q 342 890 375 819 q 378 932 351 908 q 424 967 404 956 q 492 890 458 944 m 263 890 q 224 839 250 869 q 179 796 199 808 q 113 890 146 819 q 149 932 122 908 q 194 967 175 956 q 263 890 229 944 z "},"ħ":{"ha":671,"x_min":26,"x_max":757,"o":"m 588 540 l 194 526 q 31 514 94 524 l 26 519 q 36 564 35 547 l 622 586 q 744 593 718 590 q 757 550 750 565 l 757 543 l 588 540 m 525 428 l 526 507 q 514 721 526 667 q 643 738 599 726 l 650 732 q 621 495 632 651 q 610 199 610 339 q 622 -4 610 58 q 494 -21 538 -10 l 488 -15 q 524 357 517 118 q 380 365 451 365 q 236 357 308 365 q 233 159 233 268 q 246 -4 233 50 q 118 -21 161 -10 l 111 -15 q 138 210 126 53 q 150 492 150 367 q 140 678 150 618 q 47 700 86 683 l 50 724 q 265 738 183 724 l 272 732 q 239 428 251 632 q 390 415 326 415 q 525 428 454 415 z "},"Ĩ":{"ha":406,"x_min":-103,"x_max":407,"o":"m 240 267 q 256 0 240 71 q 114 -21 178 -4 l 106 -14 q 140 264 125 68 q 154 596 154 460 q 149 817 154 732 q 210 838 178 832 l 211 847 q 8 797 67 842 q -8 727 -8 764 q 6 675 -8 690 l 4 665 q -65 607 -31 644 q -92 621 -82 608 q -103 650 -103 633 q -35 805 -103 726 q 113 915 32 883 q 222 904 175 904 q 285 908 269 904 l 293 901 q 240 267 240 654 m 160 1174 q 292 1128 231 1128 q 385 1161 353 1128 l 407 1144 q 274 1038 354 1071 q 185 1060 250 1038 q 96 1083 119 1083 q 18 1050 50 1083 l -6 1067 q 160 1174 47 1139 z "},"ĩ":{"ha":378,"x_min":-7,"x_max":406,"o":"m 272 732 q 244 494 254 651 q 233 194 233 338 q 246 -4 233 50 q 118 -21 161 -10 l 111 -15 q 138 208 126 51 q 150 490 150 365 q 142 679 150 615 q 46 700 79 686 l 49 724 q 265 738 183 724 l 272 732 m 158 956 q 290 910 229 910 q 383 943 351 910 l 406 926 q 272 819 353 853 q 183 842 247 819 q 94 865 119 865 q 17 832 47 865 l -7 849 q 158 956 46 921 z "},"ı":{"ha":378,"x_min":46,"x_max":272,"o":"m 272 732 q 244 494 254 651 q 233 194 233 338 q 246 -4 233 50 q 118 -21 161 -10 l 111 -15 q 138 208 126 51 q 150 490 150 365 q 142 679 150 615 q 46 700 79 686 l 49 724 q 265 738 183 724 l 272 732 z "},"Ĳ":{"ha":811,"x_min":-103,"x_max":699,"o":"m 240 267 q 256 0 240 71 q 114 -21 178 -4 l 106 -14 q 140 264 125 68 q 154 596 154 460 q 149 817 154 732 q 210 838 178 832 l 211 847 q 8 797 67 842 q -8 727 -8 764 q 6 675 -8 690 l 4 665 q -65 607 -31 644 q -92 621 -82 608 q -103 650 -103 633 q -35 805 -103 726 q 113 915 32 883 q 222 904 175 904 q 285 908 269 904 l 293 901 q 240 267 240 654 m 544 214 q 560 617 560 501 q 554 817 560 732 q 615 838 583 832 l 617 847 q 414 797 472 842 q 397 727 397 764 q 411 675 397 690 l 410 665 q 340 607 375 644 q 313 621 324 608 q 303 650 303 633 q 370 805 303 726 q 518 915 438 883 q 628 904 581 904 q 690 908 675 904 l 699 901 q 646 267 646 654 q 658 18 646 122 q 542 -131 624 -57 q 376 -250 461 -206 l 361 -229 q 499 -44 463 -144 q 544 214 536 57 z "},"ĳ":{"ha":746,"x_min":46,"x_max":640,"o":"m 272 732 q 244 494 254 651 q 233 194 233 338 q 246 -4 233 50 q 118 -21 161 -10 l 111 -15 q 138 208 126 51 q 150 490 150 365 q 142 679 150 615 q 46 700 79 686 l 49 724 q 265 738 183 724 l 272 732 m 356 -181 q 463 -36 435 -112 q 505 197 492 40 q 518 485 518 354 q 510 679 518 615 q 414 700 447 686 l 417 724 q 633 738 553 724 l 640 732 q 612 494 622 651 q 601 220 601 338 q 613 18 601 103 q 513 -102 585 -40 q 369 -201 440 -164 l 356 -181 z "},"Ĵ":{"ha":406,"x_min":-103,"x_max":371,"o":"m 139 214 q 154 617 154 501 q 149 817 154 732 q 210 838 178 832 l 211 847 q 8 797 67 842 q -8 727 -8 764 q 6 675 -8 690 l 4 665 q -65 607 -31 644 q -92 621 -82 608 q -103 650 -103 633 q -35 805 -103 726 q 113 915 32 883 q 222 904 175 904 q 285 908 269 904 l 293 901 q 240 267 240 654 q 253 18 240 122 q 137 -131 218 -57 q -29 -250 56 -206 l -44 -229 q 94 -44 57 -144 q 139 214 131 57 m 176 1107 l 6 997 l -10 1019 q 188 1229 124 1119 l 218 1229 q 371 1017 264 1106 l 350 1000 l 176 1107 z "},"ĵ":{"ha":388,"x_min":-3,"x_max":364,"o":"m -3 -181 q 105 -36 76 -112 q 147 197 133 40 q 160 485 160 354 q 151 679 160 615 q 56 700 89 686 l 58 724 q 275 738 194 724 l 282 732 q 253 494 264 651 q 243 220 243 338 q 254 18 243 103 q 154 -102 226 -40 q 11 -201 82 -164 l -3 -181 m 189 886 l 38 776 l 22 799 q 200 1008 143 900 l 231 1008 q 285 888 257 935 q 364 796 314 842 l 343 779 l 189 886 z "},"ķ":{"ha":626,"x_min":47,"x_max":636,"o":"m 235 210 q 246 -4 235 65 q 118 -21 161 -10 l 111 -15 q 139 203 128 49 q 150 492 150 358 q 143 679 150 626 q 47 700 81 686 l 50 724 q 268 738 185 724 l 274 732 q 238 343 246 611 l 369 511 q 422 597 399 547 q 446 668 446 646 q 443 718 446 690 l 447 724 q 582 733 540 724 q 382 432 531 583 l 515 190 q 636 -4 579 72 q 497 -19 533 -11 l 490 -17 q 318 371 465 108 l 235 278 l 235 210 m 361 -43 q 422 -117 400 -71 q 268 -299 406 -225 l 254 -281 q 328 -181 319 -232 q 279 -117 300 -154 q 315 -76 288 -100 q 361 -43 342 -53 z "},"ĸ":{"ha":703,"x_min":46,"x_max":689,"o":"m 253 103 q 264 0 253 58 q 149 -21 224 -3 l 140 -14 q 163 288 163 63 q 154 614 163 514 q 46 633 101 618 l 46 653 q 272 674 169 653 l 282 656 q 258 411 258 594 q 242 308 256 371 l 256 307 q 340 501 285 417 q 488 679 396 586 l 507 671 q 629 639 582 639 l 636 618 q 578 453 578 560 q 578 429 578 442 l 558 428 q 535 539 540 478 q 479 560 510 554 q 361 446 442 556 q 507 115 419 251 l 522 92 q 606 204 564 129 q 669 343 649 279 l 689 339 q 613 131 663 231 q 492 -21 563 32 q 379 115 429 3 q 303 336 329 226 q 253 103 253 236 z "},"Ŀ":{"ha":561,"x_min":-103,"x_max":622,"o":"m 240 267 q 247 67 240 168 q 338 58 296 58 q 511 92 440 58 q 528 162 528 125 q 514 214 528 199 l 515 224 q 585 282 550 244 q 612 268 601 281 q 622 239 622 256 q 562 93 622 163 q 421 -10 501 24 q 289 1 368 1 q 114 -21 210 1 l 106 -14 q 140 264 125 68 q 154 596 154 460 q 149 817 154 732 q 210 838 178 832 l 211 847 q 8 797 67 842 q -8 727 -8 764 q 6 675 -8 690 l 4 665 q -65 607 -31 644 q -92 621 -82 608 q -103 650 -103 633 q -35 805 -103 726 q 113 915 32 883 q 222 904 175 904 q 285 908 269 904 l 293 901 q 240 267 240 656 m 518 490 q 480 439 506 469 q 435 396 454 408 q 368 490 401 419 q 404 532 378 508 q 450 567 431 556 q 518 490 485 544 z "},"ŀ":{"ha":708,"x_min":46,"x_max":496,"o":"m 461 415 q 423 364 449 394 q 378 321 397 333 q 311 415 344 344 q 347 457 321 433 q 393 492 374 481 q 461 415 428 469 m 271 733 q 243 493 254 651 q 232 221 232 335 q 236 56 232 107 q 353 47 274 47 q 490 67 432 47 l 496 60 q 479 -17 483 22 q 301 -4 408 -4 q 118 -21 194 -4 l 111 -15 q 138 209 126 51 q 150 493 150 367 q 140 681 150 619 q 46 700 75 688 l 49 724 q 267 739 182 724 l 271 733 z "},"Ł":{"ha":633,"x_min":-103,"x_max":622,"o":"m 18 407 l 331 567 q 435 624 403 604 l 440 622 q 447 575 440 596 l 149 425 q 14 349 54 378 l 8 353 q 18 407 17 382 m 240 267 q 247 67 240 168 q 338 58 296 58 q 511 92 440 58 q 528 162 528 125 q 514 214 528 199 l 515 224 q 585 282 550 244 q 612 268 601 281 q 622 239 622 256 q 562 93 622 163 q 421 -10 501 24 q 289 1 368 1 q 114 -21 210 1 l 106 -14 q 140 264 125 68 q 154 596 154 460 q 149 817 154 732 q 210 838 178 832 l 211 847 q 8 797 67 842 q -8 727 -8 764 q 6 675 -8 690 l 4 665 q -65 607 -31 644 q -92 621 -82 608 q -103 650 -103 633 q -35 805 -103 726 q 113 915 32 883 q 222 904 175 904 q 285 908 269 904 l 293 901 q 240 267 240 656 z "},"ł":{"ha":392,"x_min":36,"x_max":496,"o":"m 178 385 l 179 386 l 263 429 q 367 486 335 467 l 372 485 q 379 438 372 458 l 176 336 q 42 260 82 289 l 36 264 q 46 318 44 293 l 178 385 m 271 733 q 243 493 254 651 q 232 221 232 335 q 236 56 232 107 q 353 47 274 47 q 490 67 432 47 l 496 60 q 479 -17 483 22 q 301 -4 408 -4 q 118 -21 194 -4 l 111 -15 q 138 209 126 51 q 150 493 150 367 q 140 681 150 619 q 46 700 75 688 l 49 724 q 267 739 182 724 l 271 733 z "},"Ń":{"ha":850,"x_min":-103,"x_max":733,"o":"m 733 918 q 699 648 714 833 q 683 292 683 463 q 704 0 683 122 q 600 -18 643 -6 l 590 -14 q 300 583 544 131 q 222 715 263 654 l 217 713 q 229 257 217 464 q 253 0 242 50 q 115 -21 181 -4 l 107 -14 q 140 262 126 68 q 154 603 154 456 q 146 817 154 750 q 193 838 169 831 l 194 847 q 88 835 129 844 q 8 797 47 826 q -8 727 -8 764 q 6 675 -8 690 l 4 665 q -65 607 -31 644 q -92 621 -82 608 q -103 650 -103 633 q -35 805 -103 726 q 113 915 32 883 q 217 904 175 904 q 281 915 260 904 l 289 908 q 288 888 288 901 q 294 851 288 875 q 558 318 347 692 l 619 207 l 624 208 q 611 654 624 456 q 588 904 599 853 q 725 925 663 908 l 733 918 m 699 1122 l 424 1018 l 411 1043 q 528 1116 468 1071 q 619 1204 589 1161 q 674 1197 653 1204 q 690 1160 682 1186 q 699 1122 699 1135 z "},"ń":{"ha":739,"x_min":43,"x_max":636,"o":"m 636 735 q 608 517 619 667 q 596 234 596 367 q 613 -4 596 101 q 519 -18 544 -12 l 511 -15 q 338 340 485 74 q 275 456 299 411 q 215 557 251 501 l 211 556 q 221 195 211 354 q 240 -4 231 36 q 119 -21 165 -10 l 113 -15 q 139 207 128 50 q 150 483 150 364 q 139 679 150 601 q 43 700 76 686 l 46 724 q 256 738 172 724 q 310 598 267 689 q 382 453 353 507 q 486 265 411 400 l 535 176 l 538 178 q 528 528 538 376 q 510 724 518 681 q 629 740 586 729 l 636 735 m 475 996 q 503 997 489 997 q 528 994 517 997 q 548 959 538 985 q 560 921 558 933 l 296 783 l 282 807 q 475 996 424 903 z "},"Œ":{"ha":939,"x_min":53,"x_max":949,"o":"m 324 -21 q 122 80 192 -21 q 53 317 53 181 q 90 571 53 454 q 205 784 126 688 q 392 925 283 881 q 708 904 549 904 q 940 921 867 904 l 949 906 q 883 690 889 849 l 867 690 q 840 824 846 757 q 690 853 776 853 q 611 846 650 853 q 581 519 590 724 q 688 511 615 511 q 831 535 760 511 l 838 526 q 817 440 822 485 q 658 454 719 454 q 578 450 596 454 l 575 357 q 575 332 575 344 q 729 69 575 93 q 799 151 769 94 q 829 254 829 207 q 825 288 829 269 l 832 294 q 939 310 897 297 q 840 118 921 218 q 674 -21 758 18 q 514 121 557 -4 l 510 121 q 324 -21 432 25 m 488 635 q 490 726 490 685 q 488 801 490 768 q 371 828 426 828 q 278 806 315 828 q 196 590 225 711 q 167 376 167 468 q 183 224 167 285 q 242 119 200 164 q 341 75 285 75 q 435 99 397 75 q 469 200 467 139 l 488 635 z "},"œ":{"ha":846,"x_min":10,"x_max":792,"o":"m 300 744 q 389 734 339 744 q 581 724 439 724 q 785 738 724 724 l 792 725 q 738 551 743 678 l 717 551 q 697 651 704 596 q 599 675 646 675 q 510 669 551 675 q 488 417 494 583 q 579 408 524 408 q 697 429 635 408 l 703 422 q 685 340 694 401 q 563 354 619 354 q 485 350 506 354 q 483 214 482 297 q 507 92 483 131 q 591 53 531 53 q 690 76 651 53 q 700 127 700 96 q 688 171 700 158 l 689 178 q 751 228 728 199 q 789 190 789 225 q 726 58 789 114 q 574 -21 663 3 q 397 89 431 -21 q 244 -21 328 11 q 73 62 136 -21 q 10 281 10 144 q 89 556 10 417 q 300 744 168 694 m 389 219 l 399 507 q 396 611 399 539 q 291 660 349 660 q 204 642 233 660 q 118 283 118 488 q 154 128 118 194 q 261 63 190 63 q 336 82 307 63 q 389 219 388 147 z "},"Ŕ":{"ha":731,"x_min":-103,"x_max":721,"o":"m 400 904 q 577 869 519 904 q 635 735 635 833 q 583 571 635 638 q 444 474 531 504 q 605 182 517 331 q 721 0 693 33 q 569 -19 628 -6 l 560 -15 q 350 454 529 129 q 313 453 338 453 l 317 494 q 518 692 518 494 q 486 811 518 769 q 376 853 454 853 q 278 849 325 853 q 240 267 240 611 q 256 0 240 71 q 114 -21 178 -4 l 106 -14 q 140 264 125 68 q 154 596 154 460 q 149 817 154 732 q 210 838 178 832 l 211 847 q 8 797 67 842 q -8 727 -8 764 q 6 675 -8 690 l 4 665 q -65 607 -31 644 q -92 621 -82 608 q -103 650 -103 633 q -35 805 -103 726 q 113 915 32 883 q 400 904 208 904 m 654 1122 l 379 1018 l 367 1043 q 484 1116 424 1071 q 575 1204 544 1161 q 629 1197 608 1204 q 646 1160 638 1186 q 654 1122 654 1135 z "},"Ŗ":{"ha":731,"x_min":-103,"x_max":721,"o":"m 400 904 q 577 869 519 904 q 635 735 635 833 q 583 571 635 638 q 444 474 531 504 q 605 182 517 331 q 721 0 693 33 q 569 -19 628 -6 l 560 -15 q 350 454 529 129 q 313 453 338 453 l 317 494 q 518 692 518 494 q 486 811 518 769 q 376 853 454 853 q 278 849 325 853 q 240 267 240 611 q 256 0 240 71 q 114 -21 178 -4 l 106 -14 q 140 264 125 68 q 154 596 154 460 q 149 817 154 732 q 210 838 178 832 l 211 847 q 8 797 67 842 q -8 727 -8 764 q 6 675 -8 690 l 4 665 q -65 607 -31 644 q -92 621 -82 608 q -103 650 -103 633 q -35 805 -103 726 q 113 915 32 883 q 400 904 208 904 m 410 -43 q 471 -117 447 -71 q 317 -299 454 -225 l 303 -281 q 376 -181 368 -232 q 328 -117 349 -154 q 363 -76 336 -100 q 410 -43 390 -53 z "},"ŗ":{"ha":638,"x_min":47,"x_max":636,"o":"m 568 586 q 524 459 568 515 q 413 376 479 403 q 512 194 444 317 q 636 -4 579 72 q 497 -19 533 -11 l 490 -17 q 433 142 479 38 q 325 357 386 247 q 292 356 315 356 l 296 399 q 458 553 458 399 q 433 655 458 621 q 353 689 407 689 q 265 676 300 689 q 233 265 233 482 q 247 -4 233 47 q 118 -21 163 -10 l 111 -15 q 138 208 126 51 q 150 490 150 365 q 142 679 150 615 q 47 701 86 685 l 49 724 q 219 730 114 724 q 363 736 324 736 q 568 586 568 736 m 363 -43 q 424 -117 400 -71 q 269 -299 407 -225 l 256 -281 q 329 -181 321 -232 q 281 -117 301 -154 q 316 -76 289 -100 q 363 -43 343 -53 z "},"Ř":{"ha":731,"x_min":-103,"x_max":721,"o":"m 400 904 q 577 869 519 904 q 635 735 635 833 q 583 571 635 638 q 444 474 531 504 q 605 182 517 331 q 721 0 693 33 q 569 -19 628 -6 l 560 -15 q 350 454 529 129 q 313 453 338 453 l 317 494 q 518 692 518 494 q 486 811 518 769 q 376 853 454 853 q 278 849 325 853 q 240 267 240 611 q 256 0 240 71 q 114 -21 178 -4 l 106 -14 q 140 264 125 68 q 154 596 154 460 q 149 817 154 732 q 210 838 178 832 l 211 847 q 8 797 67 842 q -8 727 -8 764 q 6 675 -8 690 l 4 665 q -65 607 -31 644 q -92 621 -82 608 q -103 650 -103 633 q -35 805 -103 726 q 113 915 32 883 q 400 904 208 904 m 415 1119 l 586 1229 l 601 1207 q 404 997 468 1107 l 374 997 q 221 1210 328 1121 l 242 1226 l 415 1119 z "},"ř":{"ha":638,"x_min":47,"x_max":636,"o":"m 568 586 q 524 459 568 515 q 413 376 479 403 q 512 194 444 317 q 636 -4 579 72 q 497 -19 533 -11 l 490 -17 q 433 142 479 38 q 325 357 386 247 q 292 356 315 356 l 296 399 q 458 553 458 399 q 433 655 458 621 q 353 689 407 689 q 265 676 300 689 q 233 265 233 482 q 247 -4 233 47 q 118 -21 163 -10 l 111 -15 q 138 208 126 51 q 150 490 150 365 q 142 679 150 615 q 47 701 86 685 l 49 724 q 219 730 114 724 q 363 736 324 736 q 568 586 568 736 m 372 899 l 524 1008 l 539 986 q 361 776 418 885 l 331 776 q 276 897 304 850 q 197 989 247 943 l 218 1006 l 372 899 z "},"ȷ":{"ha":332,"x_min":-3,"x_max":282,"o":"m -3 -181 q 105 -36 76 -112 q 147 197 133 40 q 160 485 160 354 q 151 679 160 615 q 56 700 89 686 l 58 724 q 275 738 194 724 l 282 732 q 253 494 264 651 q 243 220 243 338 q 254 18 243 103 q 154 -102 226 -40 q 11 -201 82 -164 l -3 -181 z "},"ˆ":{"ha":342,"x_min":0,"x_max":342,"o":"m 167 886 l 15 776 l 0 799 q 178 1008 121 900 l 208 1008 q 263 888 235 935 q 342 796 292 842 l 321 779 l 167 886 z "},"ˇ":{"ha":342,"x_min":0,"x_max":342,"o":"m 175 899 l 326 1008 l 342 986 q 164 776 221 885 l 133 776 q 78 897 107 850 q 0 989 50 943 l 21 1006 l 175 899 z "},"˚":{"ha":276,"x_min":0,"x_max":276,"o":"m 207 885 q 207 905 207 885 q 188 942 207 924 q 139 961 168 961 q 93 949 110 961 q 69 875 69 921 q 140 807 69 807 q 183 819 169 807 q 207 885 207 847 m 124 758 q 35 781 71 758 q 0 855 0 804 q 47 948 0 906 q 161 1010 93 990 q 276 925 276 1010 q 233 821 276 864 q 124 758 189 778 z "},"˜":{"ha":413,"x_min":0,"x_max":413,"o":"m 165 956 q 297 910 236 910 q 390 943 358 910 l 413 926 q 279 819 360 853 q 190 842 256 819 q 101 865 125 865 q 24 832 56 865 l 0 849 q 165 956 53 921 z "},"̇":{"ha":150,"x_min":0,"x_max":150,"o":"m 150 890 q 112 839 138 869 q 67 796 86 808 q 0 890 33 819 q 36 932 10 908 q 82 967 63 956 q 150 890 117 944 z "},"–":{"ha":604,"x_min":1,"x_max":603,"o":"m 42 411 q 378 399 215 399 q 594 403 540 399 l 603 394 l 563 340 l 13 340 l 1 350 l 42 411 z "},"—":{"ha":882,"x_min":1,"x_max":881,"o":"m 42 411 q 548 399 278 399 q 872 403 818 399 l 881 394 l 840 340 l 13 340 l 1 350 l 42 411 z "},"‘":{"ha":285,"x_min":64,"x_max":264,"o":"m 64 658 q 131 807 76 732 q 253 925 186 882 l 264 911 q 164 732 178 825 q 215 658 199 697 q 176 615 203 639 q 131 582 149 592 q 94 616 115 592 q 64 658 74 640 z "},"’":{"ha":285,"x_min":21,"x_max":221,"o":"m 221 849 q 153 700 208 775 q 32 582 99 625 l 21 596 q 121 775 106 681 q 69 849 86 810 q 109 892 82 868 q 154 925 136 915 q 190 891 169 915 q 221 849 211 867 z "},"‚":{"ha":289,"x_min":21,"x_max":221,"o":"m 221 74 q 153 -65 208 6 q 32 -176 99 -136 l 21 -162 q 121 0 107 -85 q 69 74 86 35 q 109 117 82 93 q 154 150 136 140 q 190 116 169 140 q 221 74 211 92 z "},"“":{"ha":493,"x_min":64,"x_max":472,"o":"m 64 658 q 131 807 76 732 q 253 925 186 882 l 264 911 q 164 732 178 825 q 215 658 199 697 q 176 615 203 639 q 131 582 149 592 q 94 616 115 592 q 64 658 74 640 m 272 658 q 340 807 285 732 q 461 925 394 882 l 472 911 q 372 732 386 825 q 424 658 407 697 q 384 615 411 639 q 339 582 357 592 q 303 616 324 592 q 272 658 282 640 z "},"”":{"ha":493,"x_min":21,"x_max":429,"o":"m 429 849 q 362 700 417 775 q 240 582 307 625 l 229 596 q 329 775 314 681 q 278 849 294 810 q 317 892 290 868 q 363 925 344 915 q 399 891 378 915 q 429 849 419 867 m 221 849 q 153 700 208 775 q 32 582 99 625 l 21 596 q 121 775 106 681 q 69 849 86 810 q 109 892 82 868 q 154 925 136 915 q 190 891 169 915 q 221 849 211 867 z "},"„":{"ha":493,"x_min":21,"x_max":429,"o":"m 221 74 q 153 -65 208 6 q 32 -176 99 -136 l 21 -162 q 121 0 107 -85 q 69 74 86 35 q 109 117 82 93 q 154 150 136 140 q 190 116 169 140 q 221 74 211 92 m 429 74 q 362 -65 417 6 q 240 -176 307 -136 l 229 -162 q 329 0 315 -85 q 278 74 294 35 q 317 117 290 93 q 363 150 344 140 q 399 116 378 140 q 429 74 419 92 z "},"•":{"ha":468,"x_min":64,"x_max":404,"o":"m 404 400 l 401 381 q 224 196 285 293 l 199 196 q 64 379 161 293 l 67 399 q 169 475 129 439 q 243 565 208 511 l 268 565 q 322 476 292 511 q 404 400 353 440 z "},"…":{"ha":800,"x_min":64,"x_max":736,"o":"m 214 74 q 176 22 201 53 q 131 -21 150 -8 q 64 74 97 3 q 100 115 74 92 q 146 150 126 139 q 214 74 181 128 m 475 74 q 437 22 463 53 q 392 -21 411 -8 q 325 74 358 3 q 361 115 335 92 q 407 150 388 139 q 475 74 442 128 m 736 74 q 698 22 724 53 q 653 -21 672 -8 q 586 74 619 3 q 622 115 596 92 q 668 150 649 139 q 736 74 703 128 z "},"‹":{"ha":393,"x_min":64,"x_max":364,"o":"m 190 393 l 314 174 l 283 154 q 64 374 175 300 l 67 401 q 339 610 208 474 l 364 592 l 190 393 z "},"›":{"ha":396,"x_min":29,"x_max":332,"o":"m 29 174 l 206 393 l 85 592 l 110 610 q 332 401 208 472 l 329 374 q 54 154 206 306 l 29 174 z "},"€":{"ha":539,"x_min":29,"x_max":519,"o":"m 101 243 q 104 304 101 263 l 33 297 l 29 303 q 68 347 56 329 l 108 349 q 118 406 114 388 q 33 399 68 404 l 29 404 q 68 449 56 431 l 129 451 q 325 747 185 650 q 443 719 393 719 q 511 726 493 719 l 519 703 q 463 507 463 650 l 443 507 q 424 611 426 574 l 386 628 q 275 663 331 653 q 211 456 231 572 l 297 460 q 414 467 386 464 l 418 461 q 397 417 404 440 l 206 411 q 200 354 203 393 l 297 358 q 414 365 386 363 l 418 360 q 397 315 404 339 l 200 310 q 224 172 200 235 q 300 86 249 108 q 456 317 406 169 l 488 303 q 400 118 458 204 q 265 -21 342 32 q 144 72 186 -3 q 101 243 101 146 z "}}}
